<?xml version="1.0" encoding="utf-8"?>
<!-- Generator: Adobe Illustrator 25.2.3, SVG Export Plug-In . SVG Version: 6.00 Build 0)  -->
<svg version="1.1" xmlns="http://www.w3.org/2000/svg" xmlns:xlink="http://www.w3.org/1999/xlink" x="0px" y="0px"
	 viewBox="0 0 391 555" style="enable-background:new 0 0 391 555;" xml:space="preserve">
<style type="text/css">
	.st0{fill:#FCC406;}
</style>
<g id="Ebene_1">
</g>
<g id="Pattern_x5F__x2014_ŽÓť_x5F_23">
	<g>
		<path class="st0" d="M159.4,437.7c-9.5,0-15.1,9.1-15.8,17.6c-1.1,8.2,4.2,15,12.9,15.1c7.6,0.1,15-5.1,16.5-12.7
			C174.6,448.9,169.4,437.7,159.4,437.7z"/>
		<path class="st0" d="M238.6,417.5c-5.9-1.8-11.4,2.3-12.3,8.2c-1.2,6,1.6,11.9,7.5,13.9c6,2.1,11.6-2.6,12.6-8.4
			C247.5,425.4,244.4,419.3,238.6,417.5z"/>
		<path class="st0" d="M200.9,508.9c-5.1,1.4-8.6,6.1-8.7,11.3c-0.1,1.2,0.1,2.4,0.8,3.5c3,4.2,8.2,6.6,13.4,5.2
			c5.5-1.5,8.5-7,7.1-12.5C212.1,510.8,206.5,507.4,200.9,508.9z"/>
		<path class="st0" d="M287.4,374c-5.1,1.4-8.6,6.1-8.7,11.3c-0.1,1.2,0.1,2.4,0.8,3.5c3,4.2,8.2,6.6,13.4,5.2
			c5.5-1.5,8.5-7,7.1-12.5C298.6,375.9,293,372.4,287.4,374z"/>
		<path class="st0" d="M278.6,467.7c-1.9,7.4,9.7,10.3,11.5,2.9C292,463.1,280.4,460.2,278.6,467.7z"/>
		<path class="st0" d="M331.6,343.7c-1.9,7.4,9.7,10.3,11.5,2.9C345,339.1,333.4,336.2,331.6,343.7z"/>
		<path class="st0" d="M106.8,515.3c-1.9,7.4,9.7,10.3,11.5,2.9C120.2,510.7,108.7,507.8,106.8,515.3z"/>
		<path class="st0" d="M337.8,200.3c-1.9,7.4,9.7,10.3,11.5,2.9C351.2,195.7,339.7,192.8,337.8,200.3z"/>
		<path class="st0" d="M165.1,47.9c-1.9,7.4,9.7,10.3,11.5,2.9C178.5,43.4,167,40.5,165.1,47.9z"/>
		<path class="st0" d="M66.1,96.4c-1.9,7.4,9.7,10.3,11.5,2.9C79.5,91.9,67.9,89,66.1,96.4z"/>
		<path class="st0" d="M158.9,164.7c-1.9,7.4,9.7,10.3,11.5,2.9C172.3,160.2,160.8,157.3,158.9,164.7z"/>
		<path class="st0" d="M288.9,226.7c-1.9,7.4,9.7,10.3,11.5,2.9C302.3,222.2,290.8,219.3,288.9,226.7z"/>
		<path class="st0" d="M111.1,383.3c-1.9,7.4,9.7,10.3,11.5,2.9C124.5,378.8,112.9,375.9,111.1,383.3z"/>
		<path class="st0" d="M146.9,121.6c4,1,7.6-1.6,9.5-4.8c1.5-2.5,2.1-5.2,2.4-8c0.3-3.3-0.9-6.8-3.9-8.5c-2.5-1.4-5.3-1-7.8,0.3
			c-0.9,0.5-1.8,1.2-2.6,1.9c-0.7,0.5-1.3,1.2-1.9,1.8c-0.6,0.7-1.1,1.5-1.4,2.4c-0.5,0.4-0.9,0.9-1.2,1.5c-0.7,1.4-1,3.1-0.5,4.6
			C140.6,116.5,142.7,120.6,146.9,121.6z"/>
		<path class="st0" d="M324.3,270.2c-6.4,3.3-8,11.2-4.8,17.3c1,1.8,3,2.8,5,2.9c3.3,2.7,7.7,3.5,11.7,0.8c4.4-3,6.5-9,4.8-14.1
			C338.8,270.4,330.7,267,324.3,270.2z"/>
		<path class="st0" d="M289.1,298.9c-0.5-2.2-2-3.9-3.8-5.1c-1.5-0.9-3.4-1.3-5.2-1.3c-0.4,0-0.9,0-1.3,0.1c-1,0.1-1.9,0.3-2.8,0.5
			c-0.9,0.3-1.8,0.7-2.7,1.1c-0.4,0.2-0.9,0.4-1.3,0.7c-1.6,1.1-2.8,2.3-3.9,3.9c-0.1,0.2-0.2,0.3-0.3,0.5c-0.3,0.6-0.6,1.3-0.8,2
			c-0.2,0.7-0.2,1.4-0.3,2.1c0,0.2,0,0.4,0,0.6c0.2,2.5,1.2,4.6,2.9,6.4c0.8,0.8,1.7,1.5,2.6,2.1c0.7,0.5,1.4,0.9,2.1,1.3
			c0.5,0.2,0.9,0.4,1.4,0.6c0.7,0.4,1.5,0.7,2.3,0.7c0.8,0.2,1.6,0.1,2.3-0.1c1.3-0.4,2.8-1.4,3.4-2.7c0.2-0.2,0.4-0.4,0.6-0.6
			c1.3-1.7,2.7-3.5,3.6-5.5c0.4-1,0.9-2,1.1-3.1C289.4,301.5,289.5,300.5,289.1,298.9z"/>
		<path class="st0" d="M323.1,154.9c-0.5-2.2-2-3.9-3.8-5.1c-1.5-0.9-3.4-1.3-5.2-1.3c-0.4,0-0.9,0-1.3,0.1c-1,0.1-1.9,0.3-2.8,0.5
			c-0.9,0.3-1.8,0.7-2.7,1.1c-0.4,0.2-0.9,0.4-1.3,0.7c-1.6,1.1-2.8,2.3-3.9,3.9c-0.1,0.2-0.2,0.3-0.3,0.5c-0.3,0.6-0.6,1.3-0.8,2
			c-0.2,0.7-0.2,1.4-0.3,2.1c0,0.2,0,0.4,0,0.6c0.2,2.5,1.2,4.6,2.9,6.4c0.8,0.8,1.7,1.5,2.6,2.1c0.7,0.5,1.4,0.9,2.1,1.3
			c0.5,0.2,0.9,0.4,1.4,0.6c0.7,0.4,1.5,0.7,2.3,0.7c0.8,0.2,1.6,0.1,2.3-0.1c1.3-0.4,2.8-1.4,3.4-2.7c0.2-0.2,0.4-0.4,0.6-0.6
			c1.3-1.7,2.7-3.5,3.6-5.5c0.4-1,0.9-2,1.1-3.1C323.4,157.5,323.5,156.5,323.1,154.9z"/>
		<path class="st0" d="M52.4,182.9c-1.9,7.4,9.7,10.3,11.5,2.9C65.8,178.4,54.2,175.5,52.4,182.9z"/>
		<path class="st0" d="M77,39.4c1.9-7.4-9.7-10.3-11.5-2.9C63.6,43.9,75.1,46.8,77,39.4z"/>
		<path class="st0" d="M344,479.3c-1.9,7.4,9.7,10.3,11.5,2.9C357.4,474.8,345.8,471.8,344,479.3z"/>
		<path class="st0" d="M241.2,259c1.9-7.4-9.7-10.3-11.5-2.9C227.8,263.5,239.3,266.4,241.2,259z"/>
		<path class="st0" d="M178.7,326.6c-12.4,2.9-12.7,17-10.8,27.1c0.3,1.9,1.3,3.1,2.5,3.7c6,6.3,15.7,8.9,23.7,5
			c8.4-4,11.2-13.8,8-22.3C198.8,331.2,188.2,324.4,178.7,326.6z"/>
		<path class="st0" d="M219.7,91.6c-12.4,2.9-12.7,17-10.8,27.1c0.3,1.9,1.3,3.1,2.5,3.7c6,6.3,15.7,8.9,23.7,5
			c8.4-4,11.2-13.8,8-22.3C239.8,96.2,229.2,89.4,219.7,91.6z"/>
		<path class="st0" d="M165.6,264.5c3.1-12.6,2.7-27.6-10.9-33.7c-12.2-5.5-30.3-0.8-37.3,10.9c-11.3,18.9,6,39.4,25.7,40.1
			C154.2,282.1,163.2,275.3,165.6,264.5z"/>
		<path class="st0" d="M41.8,434.9c-1.9,7.4,9.7,10.3,11.5,2.9C55.2,430.4,43.7,427.5,41.8,434.9z"/>
		<path class="st0" d="M240.8,188.9c-1.9,7.4,9.7,10.3,11.5,2.9C254.2,184.4,242.7,181.5,240.8,188.9z"/>
		<path class="st0" d="M60.1,297c-1.9,7.4,9.7,10.3,11.5,2.9C73.5,292.5,62,289.6,60.1,297z"/>
	</g>
	<g>
	</g>
	<g>
	</g>
	<g>
	</g>
	<g>
	</g>
	<g>
	</g>
	<g>
	</g>
</g>
</svg>
