<?xml version="1.0" encoding="utf-8"?>
<!-- Generator: Adobe Illustrator 25.2.3, SVG Export Plug-In . SVG Version: 6.00 Build 0)  -->
<svg version="1.1" xmlns="http://www.w3.org/2000/svg" xmlns:xlink="http://www.w3.org/1999/xlink" x="0px" y="0px"
	 viewBox="0 0 1420 781" style="enable-background:new 0 0 1420 781;" xml:space="preserve">
<style type="text/css">
	.st0{opacity:0.6;fill:#FCC406;}
	.st1{fill:#F8AE53;}
	.st2{fill:#EA6A29;}
</style>
<g id="Ebene_1">
</g>
<g id="Pattern_x5F__x2014_ŽÓť_x5F_23">
	<path class="st0" d="M772.9,781H1420V64c-276.2-13.8-332,372-643,536C652.7,665.5,232.2,720.1,60,781"/>
	<g>
		<path class="st1" d="M1101.1,699.3c-3-12.6-10.6-24-21-31.8c-1.6-1.2-3.2-2.3-4.9-3.3c-10.7-6.2-24.8-8.5-35-0.1
			c-12.7,10.4-14.8,29.8-8.1,44.1c7.5,16,25.5,28.7,43.6,26.8c0.1,0,0.2,0,0.4,0C1091.4,733.3,1109.7,715.2,1101.1,699.3z
			 M1075.8,731.9c-0.5,0.1-0.9,0.1-1.4,0.1c-16.4,0.9-32.4-10.2-39.4-24.7c-6.3-13-4.7-30.9,6.9-40.6c9-7.5,21.6-5.4,31.1,0
			c2.2,1.3,4.4,2.7,6.4,4.3c9.2,7.3,15.9,17.8,18.6,29.2c0,0,0,0,0,0c0,0,0,0,0,0c0.1,0.2,0.1,0.4,0.2,0.5
			C1105.8,714.6,1089.1,730.2,1075.8,731.9z"/>
		<path class="st1" d="M1014.8,629.8c-10.9,8.1-19.8,18.6-24.9,31c-1.2,2.8-2.1,5.7-2.9,8.7c-2.7,10.6-2.6,21.7-0.3,32.4
			c0.9,4,2,7.9,3.4,11.7c12.8,34,45.4,59.5,81.7,62.6c3.3,0.6,6.7,0.5,10.1-0.1c12-2.1,24.1-10.3,32.7-17.1
			c13.4-10.6,22.8-23.9,25.1-41.1c4.3-31.9-14.5-63.9-39.2-82.8c-3.3-2.6-6.8-4.9-10.4-6.9C1066.5,614.6,1038.1,612.5,1014.8,629.8z
			 M1089.2,631.2c25.1,14.9,45.2,42.4,47.7,71.8c1.5,18-4.1,34.5-17.1,47.2c-6.9,6.8-15,12.6-23.7,17c-4.4,2.3-9.7,4.7-15,5.7
			c-3,0.6-5.9,0.7-8.8,0.2c-0.1,0-0.1,0-0.2,0c-0.1,0-0.1,0-0.2,0c-30.9-2.6-58.8-22.1-73.6-49.1c-14.5-26.5-14.1-59,7.2-81.8
			c10.8-11.6,25.2-20.4,41.3-21.8c14.4-1.3,28.8,3,41.2,10.1C1088.4,630.7,1088.8,631,1089.2,631.2z"/>
		<path class="st1" d="M1151.9,645.8c-13.2-18.9-30.9-34.9-51.2-45.4c-22.2-11.5-47.5-16.2-73.2-10.5c-9.3,2.1-18.3,5.5-26.7,10.1
			c-2.7,1.4-5.3,3-7.8,4.7c-9.8,6.4-19.7,13.4-28,21.6c-18.3,18-22.9,43.8-20.6,68.5c2.3,24.2,12,45.5,25.9,65.1
			c3.4,4.8,7.1,9.7,11.1,14.5c0.7,0.9,1.5,1.7,2.2,2.6h4.4c-1.9-2.1-3.7-4.1-5.4-6.1c-0.3-0.3-0.5-0.6-0.8-0.9
			c-13.4-16-25.3-34.7-30.7-54.9c-6.5-23.9-7-53.5,6.7-75.1c6-9.4,14.6-16.5,23.4-23c6-4.4,12-8.7,18.4-12.5c3.6-2.1,7.2-4,11-5.7
			c29.6-12.7,61.5-9.2,88.8,4.6c14.8,7.5,28.3,18,39.3,30.7c25.5,29.2,45.1,72.9,33.1,111.9c-3.7,12.2-10.6,22.6-19.5,31.1h4.6
			c3.6-3.7,6.9-7.8,9.7-12.3C1190.2,727.6,1175.2,679.1,1151.9,645.8z"/>
		<path class="st1" d="M1213.6,680.4c-10.4-29.6-31-55.8-53-77.8c-13-13-27.7-25.5-43.9-35.2c-12.3-7.4-25.4-13.2-39.2-16.4
			c-18.6-4.3-38.4-4.1-57.3,0c-12.8,2.8-25.1,7.3-36.4,13.4c-14.1,7.6-25.9,18.2-37.3,29.3c-10.9,10.6-21.2,22-28.9,35
			c-16.7,28.1-17.9,63-10.6,94.3c4.4,18.8,11.7,37.4,22.1,53.9h4c-6.1-9.4-11.1-19.6-15.3-30.2c-11.7-29.8-16.7-65.5-6.6-96.5
			c9.2-28,31.7-50.7,53.8-69.2c15.4-12.9,33.8-21.7,53.3-26.2c11.5-2.7,23.3-3.9,35.1-3.6c22.5,0.6,43,8,61.8,19.2
			c8.9,5.3,17.3,11.4,25.3,18.1c23.5,19.5,44.5,43.3,59.5,69.9c15.9,28,21,59,13.4,90.5c-2.3,9.6-5.9,19.1-10.6,28.2h3.7
			c0.9-1.9,1.8-3.7,2.7-5.6C1221.8,742.9,1224,709.8,1213.6,680.4z"/>
		<path class="st1" d="M1250.5,700.5c-2.7-19.8-6.3-40.1-13.2-58.9c-14.1-38.3-40.3-73.4-72.4-98.5c-7.3-5.7-15-10.9-23.1-15.7
			c-10.5-6.2-21.4-11.6-32.6-16.2c-20.5-8.4-42.7-13.6-64.9-11.5c0,0,0,0,0,0c-21.3,2-40,11.4-58.6,21.1
			c-18.1,9.4-35.7,19.8-51.8,32.3c-32,24.7-55,57.8-65.5,97c-10.1,37.8-7.1,78.2,9.2,113.9c2,4.4,4.3,8.8,6.7,13h3.6
			c-15.9-27.7-23.8-59.5-22-91.6c2.2-38.6,17.8-77.3,43.8-106c25.4-28,59.1-47.1,92.8-63.6c13.3-6.5,26.8-11,40.9-12.7
			c7.3-0.9,14.8-1,22.5-0.3c21.7,2.1,42.5,10.2,61.6,20.3c4.2,2.2,8.3,4.5,12.3,7c30.7,18.6,56.2,43.4,75.5,74.2
			c20.7,33,30.1,70.7,33.6,109.1c1.8,19.4,1.5,39.4-4.1,58.1c-0.5,1.8-1.2,3.6-1.8,5.4h3.2c2-5.5,3.5-11.2,4.6-17.1
			C1254.3,740.3,1253.2,720.1,1250.5,700.5z"/>
		<path class="st1" d="M1279.7,660.4c-3.6-21.9-9.5-43.7-18.5-64c-8.9-20.2-21.4-37.4-37.1-52.8c-17.8-17.5-38.3-33-60.5-45.3
			c-20.7-11.5-42.9-20.2-65.8-25.1c-17-3.7-34.1-4.5-51.3-3.7c-6.7,0.3-13.3,0.8-20,1.5c-25,2.6-49.7,8-73,17.4
			c-46.4,18.8-83.6,53-107.8,96.7c-23.7,42.9-33.9,93.5-24.3,141.9c3.4,17.3,9.3,34,16.6,50h3.3c-2.6-5.8-5.1-11.8-7.3-17.8
			c-17.2-45.6-16.9-95.6,0.1-141.3c17.2-46.2,49-87,91.6-112.2c36.1-21.4,79.1-32,121.3-33.4c6.3-0.2,12.6-0.2,18.8,0
			c33.5,1,66.4,12.1,96,28.5c13,7.2,25.3,15.5,36.8,24.4c17.3,13.4,34.1,29,46.3,47.4c11.8,17.7,19.7,37.7,25.3,58.1
			c11.5,42,14.7,87.7,6.8,130.7c-1,5.2-2.1,10.4-3.4,15.6h3.3C1286.3,739.1,1286.1,698.8,1279.7,660.4z"/>
		<path class="st1" d="M1329,674.8c-7.2-29.9-14-60.7-28-88.3c-14.8-29.2-33.5-56.3-52.7-82.8c-13.4-18.6-27.5-35.8-47.3-47
			c-2.6-1.5-5.3-2.9-8.2-4.2c-28.3-12.7-57.4-24.4-87.5-32.1c-29.3-7.5-59.9-11.3-90.1-6.9c-5.7,0.8-11.4,2-17,3.4
			c-25.2,6.3-49.2,17.9-72,29.9c-26.4,13.9-53.4,28-76.2,47.4c-21,17.8-39.1,39.8-51.2,64.6c-23.7,48.8-24.7,107-18.1,159.8
			c2.5,19.7,5.9,39.4,11.8,58.3h3.2c-2-6.3-3.8-12.7-5.2-19.2c-11.3-51.3-14.9-107.3-2.5-158.8c12.8-53.1,48.3-96.5,94.7-124.4
			c26.7-16.1,54.7-31.4,83.6-43.4c12.5-5.2,25.1-9.3,37.9-12.1c16.5-3.6,33.4-5,50.9-3.9c30.5,2,60.4,10.3,89,20.7
			c14.5,5.3,28.7,11.2,42.8,17.4c4,1.8,7.8,3.6,11.6,5.7c7.9,4.3,15.2,9.4,21.9,15.8c9.3,8.9,17,19.3,24.5,29.8
			c9,12.5,17.9,25,26.4,37.9c16.9,25.6,31.8,52.1,40.9,81.5c4.4,14.3,7.9,28.9,11.5,43.4c3.9,15.9,7.3,31.8,8.9,48
			c2,20.5,1.3,41.2-2,61.6h3.1C1339.3,743.2,1337,708.2,1329,674.8z"/>
		<path class="st1" d="M1374.6,635.9c-9.6-39.1-26.5-76.1-46.1-111.1c-17.5-31.1-35.9-64-64.9-86c-8-6.1-16.6-11.4-25.4-16.2
			c-9-4.9-18.2-9.3-27.4-13.6c-18.1-8.5-36.5-16.9-55.2-24c-38.2-14.4-78.1-23-119.1-20.5c-52.9,3.2-104.5,19.5-149.2,47.4
			c-12.4,7.7-24.2,16.3-35.5,25.7c-13.3,11.2-25.6,23.4-36.9,36.6c-11.3,13.3-21,27.7-31.2,41.9c-10.9,15.2-22.2,30.3-30.2,47.4
			c-7.9,16.9-10.5,34.8-11.7,53.3c-1.4,20.6-1,41.2-0.4,61.8c0.6,19.7,1.4,39.4,3.7,59c1.5,13.3,3.7,26.5,7,39.4h3.2
			c-7.9-30.3-9.6-62.1-10.6-93.2c-0.6-19.2-1.1-38.4-0.3-57.7c0.8-18.7,2.2-37.9,9.3-55.4c6.9-17,17.6-32.2,28.3-47
			c10.1-14,19.6-28.5,30.6-41.9c23.3-28.6,51.5-52.7,83.1-71.4c25-14.8,52.1-26.1,80.4-33.4c33.6-8.7,69.5-12.6,104.1-8.4
			c40.5,4.9,78.4,20,115.3,36.7c13.5,6.1,27,12.4,40,19.5c4.1,2.2,8.1,4.5,12.1,6.9c15.8,9.6,29.2,21.5,40.8,35.9
			c11.2,13.9,20.5,29.2,29.4,44.6c9.4,16.2,18.5,32.6,26.5,49.6c16.9,35.5,29.8,73.4,34.1,112.7c3.7,33.9,1.4,68.6-3.7,102.5h3.1
			c0.8-5.4,1.5-10.9,2.1-16.4C1384.6,718.9,1384.6,676.9,1374.6,635.9z"/>
	</g>
	<path class="st2" d="M1239.4,741.6c-0.2-5.3-0.2-10.7-1.5-15.9c-0.3-1.3-0.2-2.6-0.3-4c-0.1-1.3,0-2.7-0.3-4
		c-1.5-6.1-1.9-12.4-2.2-18.6c-0.4-7.8-0.2-15.6,0.3-23.3c0.4-7,1.2-14,2.6-20.9c1.4-6.9,3.8-13.5,5.9-20.3c1.1-3.5,3.6-5.9,7-7
		c7-2.3,14-3.3,21.2-0.7c3,1.1,6.1,2.2,9.2,2.7c3.7,0.7,7.6,0.9,11.3,1.2c7,0.6,13.7-0.3,20-3.4c1.5-0.8,3.1-1.4,4.8-1.9
		c5.4-1.5,10.2-4,14.4-7.8c2.6-2.4,5.7-3.7,9.4-3.6c2.7,0,5.3,0,8-0.1c2.1-0.1,4.1-0.6,5.6-2.3c4.8-5.7,9-11.9,11.8-18.8
		c2.2-5.3,5-10.3,8.2-15c0.5-0.8,1.3-1.5,1.6-2.3c0.3-0.8,0.4-2,0-2.6c-0.4-0.6-1.7-0.8-2.5-0.7c-0.9,0.1-1.7,0.7-2.6,1
		c-1.6,0.7-3.1,1.8-4.7,1.9c-2.6,0.1-4.8,1.1-7.1,1.8c-1.6,0.5-3.3,1-5,1.2c-10.6,1.1-21.2,2-31.8,3.2c-9.5,1.1-18.9,2.4-27.9,5.7
		c-4.6,1.7-9.1,4-13.7,5.6c-5.1,1.8-9.4,4.9-13.7,8.1c-1.2,0.9-2.3,2.2-4.6,2.4c1.8-3.7,3-7.2,5-10.2c5.5-8.2,11.3-16.2,17.2-24.2
		c1.7-2.3,3.2-4.7,4.3-7.3c2.2-5.1,4.6-10,6.8-15.1c0.9-2.1,2.4-3.3,4.6-3.7c0.8-0.1,1.5-0.4,2.2-0.4c6.8-0.4,13.6-1,20.4-1
		c5.7,0.1,11.4-0.2,17-1.1c8.5-1.2,16.1-4.4,23-9.4c4-2.9,8-5.8,12.3-8.3c7.2-4.2,14.3-8.6,20.8-13.9c1.1-0.9,2.3-1.9,3.4-2.9v-18.2
		c-0.6,0-1.2,0.1-1.8,0.2c-3.5,0.9-7.1,1.5-10.6,2.3c-2.2,0.5-4.5,0.9-6.7,1.6c-5.3,1.5-10.5,3.4-15.9,4.7
		c-4.6,1.1-9.3,1.8-13.7-1.3c-1.1-0.8-2.9-1.1-4.3-0.9c-7.3,0.8-14.2,2.9-20.2,7.3c-6.6,4.9-12.7,10.3-16.8,17.6
		c-0.5,0.8-0.9,1.7-1.6,2.4c-0.5,0.6-0.8,1.8-2.2,1.5c2.1-7.5,4.2-15,6.2-22.5c0.3-1.1,0.7-2.2,0.8-3.3c0.4-4.7,0.9-9.5,1.1-14.2
		c0.1-3.1,0.5-6.1,2.1-8.8c3.2-5.4,6.3-10.8,9.6-16.2c1-1.6,2-3.3,3.4-4.5c1.7-1.4,2.6-3.2,3.6-5c2.6-4.9,4.4-10.1,5.3-15.6
		c1.1-6.9,0.9-13.8-2.5-20c-2.2-4.1-3.9-8.2-5.4-12.6c-0.6-1.8-1.1-3.7-2-5.3c-3.9-7.6-8.1-15.1-13.4-21.8c-0.9-1.1-1.6-2.6-2.1-4
		c-2.5-6.6-4.1-13.5-5.3-20.4c-0.3-1.9-1-3.7-1.7-5.4c-0.2-0.4-0.9-1-1.2-1c-0.6,0.1-1.4,0.6-1.7,1.1c-2.3,5-4.3,10.2-6.9,15
		c-3.1,5.7-5.5,11.7-7.8,17.8c-2.4,6.3-3.4,12.9-4.6,19.4c-3.4,19.1,1.2,36.3,12.9,51.6c4.7,6.2,9.2,12.6,12.7,19.6
		c1,2,1.9,4.3,2,6.5c0.2,5.1-0.1,10.3-0.4,15.4c-0.5,10-4.1,19.3-7.2,28.7c-0.8,2.5-1.8,5-2.8,7.5c-0.2,0.4-1,0.6-1.6,0.8
		c0.1-0.5,0.4-1,0.5-1.5c1.3-8.5-0.2-16.7-2.1-24.9c-0.1-0.4-0.3-0.7-0.4-1.1c-2.6-5.7-6.2-10.4-12.5-12.5c-3.7-1.2-6.8-3.4-8.9-6.8
		c-1.3-2.2-3.3-3.6-5.5-4.9c-5.4-3.3-11-6.1-17.2-7.4c-1.7-0.3-3.3-0.9-5-1.3c-2.3-0.6-4.2-1.7-5.6-3.7c-2.8-3.8-5.8-7.6-8.6-11.3
		c-1.8-2.4-3.6-4.9-6.1-6.4c-2.7,0.4-2.5,2.4-2.5,4c0.2,5.9,0.5,11.8,0.9,17.7c0.2,2.6,0.6,5.3,1.4,7.8c2.3,7.1,4.9,14,8.7,20.4
		c2.6,4.5,5.5,8.6,8.6,12.8c4.7,6.3,10.5,11,17.6,14.1c5.2,2.3,10.4,4.7,15.5,7.2c3.9,1.9,7.7,4.2,11.5,6.3c1.7,0.9,2.8,2.3,2.6,4.1
		c-0.5,4.6,0.1,9.5-2.6,13.8c-1,1.6-1.5,3.5-2.3,5.2c-1,2-2.1,4-3.4,5.9c-1.9,2.8-4,5.6-6,8.3c-2.2,2.9-4.4,5.7-6.7,8.5
		c-4.1,5.1-6.9,10.9-9.9,16.7c-2.9,5.6-6,11-9.7,16.1c-0.4,0.6-0.6,1.5-1.9,1c1-2.5,2-4.9,3-7.4c2.8-7.1,5.2-14.2,6.5-21.8
		c1.8-10.5-0.9-19.7-7.4-27.8c-4-4.9-6.6-10.3-7.9-16.3c-1.1-5-3.5-9.2-6.2-13.4c-2.3-3.7-5.7-6.1-9.7-7.6c-0.9-0.3-1.8-0.5-2.7-0.9
		c-2-0.8-3.4-2.1-4.1-4.4c-1.5-4.6-2.5-9.2-3-13.9c-0.1-1.5-0.1-3.1-0.5-4.5c-0.1-0.6-1-1.1-1.6-1.3c-0.3-0.1-1.2,0.3-1.4,0.7
		c-0.8,1.7-1.7,3.4-2.2,5.2c-2.1,7.7-1.9,15.9-4.5,23.5c-0.1,0.3-0.1,0.8-0.1,1.1c0.1,4.4,0.1,8.8,0.5,13.1
		c1.1,12.5,4.6,24.3,10.6,35.2c2.8,5,6.1,9.6,8.9,14.6c2.3,4.1,4,8.6,6.3,12.8c4.4,8,6.1,16.3,4.2,25.3c-0.6,3.2-1.7,6.2-2.1,9.4
		c-0.7,5.2-2.9,10.3-1.2,15.7c0.1,0.3-0.1,0.7-0.2,1.1c-1.4,9.6-2.8,19.2-3.2,28.9c-0.3,8.4-1.1,16.7,0.2,25.1
		c1.1,7.1,2,14.3,3.1,21.4c1,6,1.2,12.1,1.2,18.2c0,0.2-0.4,0.5-0.9,1c-0.7-2.8-1.3-5.4-1.9-7.9c-1-4.4-1.9-8.9-3.1-13.3
		c-1-3.5-2.4-6.8-3.6-10.2c-1.2-3.2-2.4-6.4-3.8-9.5c-1.8-4-3.6-8-5.6-11.9c-1.5-2.9-3.1-5.6-4.8-8.4c-1.1-1.8-2.4-3.4-3.4-5.3
		c-7.5-13.9-14.9-27.8-22.3-41.8c-0.6-1.2-1-2.5-1.4-3.7c-0.6-1.9-0.4-3.7,0.5-5.5c5.5-10.8,9.1-22.1,10.7-34.1
		c0.4-3.3,0.3-6.4-0.5-9.6c-1-3.9-2.1-7.7-2.9-11.6c-1.3-7.1-2.6-14.2-2.6-21.5c0-5.9-0.5-11.8-0.8-17.7c-0.1-1.5-0.5-2.6-2.3-2.7
		c-0.4,0.3-0.9,0.6-1.3,1c-0.8,0.8-1.4,1.8-2.2,2.6c-0.7,0.8-1.5,1.7-2.4,2.4c-3.1,2.3-5.2,5.5-7.2,8.6c-2.5,3.8-4.9,7.6-7.4,11.5
		c-1,1.6-2.1,3.1-2.9,4.9c-1,2.4-2.6,4-5,5.4c-0.5-0.9-1-1.5-1.2-2.1c-3.1-7.2-5.5-14.6-6.9-22.3c-1.4-7.1-2.5-14.2-4.2-21.3
		c-1.5-6.5-3.8-12.7-5.2-19.2c-1.6-7.4-2.8-14.9-3-22.5c-0.1-5.9-0.1-11.8-0.1-17.7c0-1.5,0.2-3,0.4-4.5c0.3-2.4,1.6-4.3,3.6-5.5
		c3.7-2.3,7.7-4,12.2-4.5c2.8-0.3,5.6-1,8.4-1.8c1.5-0.4,2.9-1,4.2-1.7c2-1.1,3.9-2.4,5.9-3.5c2.5-1.4,5.1-2.5,6.8-5
		c0.8-1.2,2.4-1.8,3.7-2.7c3.5-2.3,7-4.6,10.5-6.8c5.9-3.6,8.5-9.4,10.4-15.7c2-6.9,2.8-14.2,7.4-20.2c0.8-1.1,1.7-3,0.5-4.7
		c-1.4,0.5-2.6,0.8-3.8,1.3c-5.2,2.3-10.3,5.1-15.6,6.9c-9.8,3.4-19.1,7.8-27.3,14c-5.7,4.3-11.7,8.6-14.7,15.6
		c-0.6,1.4-1.7,2.5-2.5,3.8c-1.4,2.5-2.8,4.9-4,7.5c-1,2.2-2,4.4-3.9,6.8c-0.7-2.5-0.3-4.4-0.1-6.2c0.7-5.3,1.4-10.5,2.2-15.8
		c1.6-10.6,4.1-20.9,8.4-30.7c3-6.8,6.3-13.5,9.3-20.2c4-8.8,8.1-17.6,12-26.5c1.3-3,3.5-4,6.3-3.7c4.5,0.4,9.1,1,13.6,1.7
		c2,0.3,4.1,1,6,1.9c6,3,12.3,5.2,19.1,5.4c0.6,0,1.1,0.2,1.7,0.3c5.6,1,10.9,0.3,15.8-2.9c3-2,6.3-3.5,10-4.1
		c3.7-0.6,7.5-1.2,11.2-1.8c7-1.2,12.9-4,17.8-9.4c3.1-3.4,6.9-5.8,11.6-6.9c6.7-1.6,13.2-3.6,19.8-5.3c3.2-0.8,6-2.2,8.8-4.5
		c-0.6-0.6-1-1.4-1.5-1.6c-4.8-1.9-9.5-4-14.4-5.5c-8.4-2.4-16.6-5.3-25.4-6.2c-13.3-1.4-26.5-1.6-39.8,0.8
		c-3.5,0.6-7.1,1.3-10.5,2.5c-4.3,1.5-8.6,3.3-12.6,5.4c-8.1,4.2-16.2,8.4-23.6,13.9c-1.2,0.9-2.4,2.4-4.5,2.2
		c1.7-4.3,2.9-8.5,5.8-11.9c0.6-0.7,1-1.6,1.5-2.4c4-6.7,7.6-13.7,12.2-19.9c5.2-7,10.3-14.1,15-21.5c1.8-2.8,4-4.4,7.1-5.1
		c7.2-1.6,14.5-1.4,21.6-0.3c7.6,1.3,15.1,1.6,22.7,1.5c12.9-0.1,24.9-3.2,35-11.6c5.1-4.3,9.2-9.6,13.3-14.7
		c3.8-4.7,7.7-8.8,13.2-11.5c2.9-1.4,5.6-3.2,8.4-4.9c1.1-0.7,2.2-1.4,3.2-2.3c1.2-1.1,2.3-2.3,3.7-3.8c-0.9-0.6-1.5-1.2-2.1-1.3
		c-2.1-0.3-4.2-0.4-6.2-0.7c-9.3-1.1-18.5-2.3-27.8-3.3c-2.1-0.2-4.2-0.3-6.3-0.1c-5.1,0.5-10.2,1.1-15.3,1.7
		c-1.3,0.2-2.6,0.4-3.9,0.8c-4.1,1-8.1,2-12.1,3.1c-2.2,0.6-4.3,1.5-6.4,2.3c-2.1,0.9-4.1,2-6.2,2.9c-8.3,3.4-16,8-22.4,14.3
		c-1.2,1.2-2.5,2.3-3.9,3.4c-1.2,1-2.2,2.5-4.3,3.2c0.1-1.8,0.2-3,0.3-4.3c0.6-4.7,2.2-9.2,3.2-13.9c0.9-4.5,2.2-8.8,4.1-13
		c1.8-4,3.8-7.9,6.5-11.4c0.8-1.1,1.5-2.2,2.1-3.4c4.2-8.3,7.9-16.9,10.8-25.8c0.7-2.2,1.4-4.4,1.6-6.6c0.4-7.2,1.1-14.4,0.7-21.6
		c-0.4-9.2-2.1-18.1-8.3-25.6c-2.3-2.8-3.5-6.3-3.7-10c-0.3-4.5-0.7-9.1-1.1-13.6c-0.1-1.3-0.6-2.6-0.8-3.9c-0.2-1-0.6-1.8-2.1-1.9
		c-0.6,0.7-1.3,1.5-2,2.4c-1.6,2.1-2.9,4.5-4.8,6.4c-7,7-11.3,15.9-15.3,24.6c-4.4,9.5-7.5,19.6-8.2,30.2c-0.4,5.5-0.4,11,0,16.5
		c0.3,4.3,1.3,8.7,2.4,12.9c1.4,5.3,3.2,10.6,5,15.8c0.4,1.2,1.3,2.3,2,3.4c1.1,1.6,2.2,3.1,3.3,4.7c5.9,8.7,6.9,10.8,3.8,23
		c-1.4,5.3-2.1,10.8-3.3,16.2c-0.5,2.2-0.9,4.5-1.8,6.6c-3.9,9.4-9,18-15.1,26c-0.5,0.7-1.2,1.2-2.4,2.3c-0.1-4.8-0.6-8.7-0.1-12.6
		c0.5-4.5,1.8-9,0.7-13.5c0.8-8.1-1.1-15.9-2.1-23.8c-0.5-4.2-2.1-8.2-4.5-11.6c-3.8-5.5-7.5-11-11.9-16c-5.2-6.1-8.5-13-10.7-20.6
		c-0.8-2.7-1.9-5.4-2.9-8.1c-0.9-2.4-2.5-4.1-5-5.5c-0.6,0.9-1.3,1.6-1.6,2.4c-1.4,4.1-2.9,8.3-3.9,12.5c-1.6,6.6-3.2,13.3-4.1,20.1
		c-1.5,12,0.3,23.9,3.1,35.6c2,8.5,6.3,16,11.4,22.8c4.1,5.5,9.2,10.2,13.8,15.2c1.8,2,3.7,3.9,5.5,5.8c2,2,4,3.9,6.2,5.9
		c-0.9,1.5-1.6,2.9-2.4,4.1c-4.1,6.6-8.6,13.1-12.3,19.9c-5.1,9.6-9.5,19.5-14.2,29.2c-1.5,3.1-2.6,6.5-5.4,9.8
		c-0.9-8-0.5-15.1,1.1-22.2c1.8-7.5,2.3-15,1.1-22.6c-0.6-3.5-1.5-6.6-4.1-9.1c-1.9-1.8-3.6-4.1-4.1-6.7c-1.2-6.5-4.3-12.6-4.3-19.4
		c0-1.4-0.7-2.5-2.2-3.2c-2.2,1.5-2.6,4-3.2,6.3c-0.6,2.2-0.8,4.5-1.5,6.7c-3.5,11.1-5.7,22.5-6.8,34.1c-0.5,5.9-0.9,11.8-0.3,17.7
		c0.8,9,3.8,17.4,9.2,24.8c2.7,3.7,5.2,7.4,7.9,11.3c-0.9,2-1.7,3.9-2.7,5.7c-6.1,11.7-10.5,24-13.2,37c-1.9,9.3-3.3,18.8-4.1,28.2
		c-0.6,7.4-0.5,14.8-1.5,22.2c-0.1,0.6,0,1.1,0,1.7c0.1,6.8,0.5,13.7,0.1,20.5c-0.3,5.4,0.8,10.6,1.9,15.8
		c2.1,9.8,4.8,19.5,7.3,29.3c0.5,2,0.9,3.9,0.5,6c-0.9-1.6-1.4-3.2-2-4.8c-4.3-11.2-9.8-21.9-16.9-31.6c-3.5-4.8-6.8-9.6-9.8-14.7
		c-7.1-12.1-14.5-24.1-21.9-36.1c-2-3.2-4.3-6.2-6.7-9.2c-2.2-2.8-4.6-5.6-7-8.2c-2.2-2.4-2.7-5-1.3-7.9c1.6-3,3.2-6.1,5.3-8.8
		c4.9-6.1,10.3-11.7,14.5-18.3c0.7-1.1,1.7-2,2.6-3c4.8-5.4,9.5-10.9,11.2-18.2c0.9-3.9,2.3-7.8,2.3-11.7c0.1-5.9-1-11.8-3.1-17.3
		c-3.4-8.7-4.6-17.6-4.2-26.8c0.1-2.1,0-4.2,0.1-6.3c0.2-2.5-0.9-4.3-2.5-6.1c-0.9,0.5-1.8,0.8-2.1,1.4c-1.8,3.2-4.7,5.5-7.1,8.1
		c-3,3.4-5.8,7-9.3,10c-1,0.8-1.6,2.1-2.3,3.3c-1.3,2.3-2.7,4.6-3.8,7.1c-4.6,10.6-9.4,21.2-12,32.6c-3.2,13.8-5.6,27.6-4,41.8
		c0.1,0.9,0.1,1.8,0.1,3.5c-1.7-1.6-3-2.7-4.2-3.9c-3-3.2-5.9-6.5-8.9-9.6c-1.8-1.9-4.2-3.3-5.9-5.3c-1.2-1.6-2.8-2.5-4.3-3.6
		c-1.2-0.9-2.6-1.6-3.8-2.5c-4.2-3.3-7.5-7.5-11-11.5c-1.9-2.2-1.9-3.9-0.2-6.2c1.7-2.3,3.9-4.1,6.6-5.4c2.3-1.1,4.1-2.7,5.2-5
		c0.8-1.7,1.7-3.4,2.6-5c3.2-6.1,5.8-12.4,10.7-17.5c1.6-1.6,3.5-3.2,4.5-5.1c2.7-5.6,5.3-11.4,5.5-17.8c0.1-3.2,0.3-6.5,0.9-9.6
		c0.6-3.5,1.8-7,2.6-10.5c0.4-1.8,0.7-3.8,0.6-5.6c-0.5-4.7-0.9-9.4-3.4-13.7c-1.6-2.8-2.7-5.9-4-8.8c-2-4.7-3.8-9.5-3.9-14.7
		c0-1.6-0.9-3.2-1.6-4.8c-0.3-0.8-1.9-0.8-2.5-0.1c-0.4,0.4-0.8,0.8-1,1.3c-2.1,3.9-4.8,7.3-7.7,10.6c-4.8,5.5-8.7,11.6-12,18
		c-7.5,14.8-13.9,30-15.4,46.9c-0.9,10.5-1.3,20.9,0.6,31.2c0.3,1.8,0.4,3.7,0.8,6.8c-2.1-3.8-3.7-6.6-5.2-9.4
		c-4.4-8.2-8.9-16.4-13.2-24.6c-0.9-1.8-1.4-3.9-1.7-5.9c-1-5.9,0.1-11.7,0.2-17.6c0.1-7,0.4-14,0.6-21.1c0.1-3,0.1-6.1-0.3-9.1
		c-1.3-9.8-5.1-18.2-13.6-24c-2.4-1.6-4-4-5.3-6.6c-1.3-2.5-2.6-5.1-4.2-7.4c-2.1-3.3-5-5.6-8.9-6.6c-2.1-0.6-4.5-1.5-6-3
		c-2.8-2.8-5.1-6.1-7.7-9.1c-2.6-3.1-4.1-6.8-6.1-10.2c-2.1-3.4-4.1-6.9-7.3-9.4c-0.6-0.5-1.6-0.5-2.3-0.7c-0.4,0.7-0.7,1-0.8,1.3
		c-1.4,9-3,18-3.5,27.1c-0.2,2.5-0.4,4.9-0.6,7.4c-0.1,0.7-0.3,1.6-0.1,2.2c1.1,2.8,0.5,5.6,0.6,8.5c0.1,3,0,6.2,0.7,9.1
		c2.1,9.3,4.5,18.5,6.9,27.7c0.5,1.8,1.1,3.7,2,5.3c4.8,8.9,11.1,16.8,18.5,23.8c4.5,4.2,9.5,7.6,14.3,11.3c5.2,4,10.9,6.9,17.4,8.1
		c2.8,0.6,4.8,2,6,4.6c3.2,6.5,6.6,12.9,9.8,19.3c5.9,11.6,12.6,22.6,21.9,31.7c0.5,0.5,1.2,1,0.5,2c-4.5,0.1-9,0.2-13.6,0.2
		c-13.9-0.1-27.2,2.3-39.7,8.8c-4.7,2.5-9.8,4.2-14.7,6.3c-1.6,0.7-3.1,1.4-4.7,2.1c-7.5,3.7-14.6,8.1-23,9.9
		c-0.9,0.2-1.8,0.5-2.7,0.9c-1.2,0.6-1.3,2.7-0.2,3.4c0.5,0.3,1.1,0.4,1.5,0.7c5.5,3.3,11.3,6.3,15.6,11.3c0.7,0.9,1.6,1.6,2.4,2.4
		c4.6,4.6,10,7.5,16.8,7.2c3-0.1,6.1-0.1,9.1,0.3c4.3,0.6,8.6,1.6,12.9,2.5c8.1,1.6,15.3-0.3,20.6-6.6c3.9-4.7,8-9.1,12.2-13.6
		c4.1-4.4,8.4-8.3,14.3-9.9c2.9-0.8,4.9-2.8,5.7-5.8c0.6-2.5,1.2-5.1,1.9-7.9c3.7,1.2,6.2,3.8,8.7,6.3c4.6,4.6,8.8,9.5,13.4,14
		c2.4,2.4,4.3,4.8,4.4,7.8c2.9,2.6,5.3,5.2,8.1,7c4.9,3.3,8.4,7.7,11.5,12.5c5.8,9.1,11.5,18.4,17.3,27.6
		c5.1,8.2,9.8,16.8,15.5,24.6c9.2,12.6,16,26.3,20.9,41c3.2,9.6,6.2,19.2,10.7,28.2c1.4,2.9,1.7,5.7,0.1,8.7
		c-2.5,4.5-3.2,9.7-4.5,14.6c-1.8,6.8-2.7,13.7-2.2,20.9c0.5,6.6,0.3,13.3,0.4,19.9c0,1.3,0.3,2.6,0.4,3.9
		c0.6,7.1,2.3,13.9,4.5,20.6c0.2,0.7,0.6,1.4-0.7,2c-1.4-0.9-3-2-4.6-2.9c-5.4-3.3-10.8-6.4-17-7.8c-5.2-1.2-10.4-2.6-15.6-3.2
		c-3.4-0.4-6.1-1.5-8.5-3.8c-0.4-2.5,1-4.5,1.8-6.6c1.4-3.7,3.1-7.4,3.9-11.3c1.2-6,3.3-11.7,5.4-17.4c3.1-8.4,4.4-16.9,4-25.7
		c-0.1-2.2-0.3-4.7-1.2-6.7c-3.6-8-7.7-15.6-13.8-22.1c-1.2-1.2-2.3-2.6-3.3-3.9c-5-6.4-8.7-13.3-8.9-21.7c-0.1-3.5-1.4-6.6-4.5-8.7
		c-0.6,0.4-1.2,0.7-1.4,1.1c-4.8,10.4-8.1,21.4-9.7,32.7c-1.3,9-2.2,18.1-1.6,27.3c0.4,5.9,1.1,11.7,1.6,17.6
		c0.7,7.9,2.9,15.3,6.4,22.4c3.2,6.5,6.6,12.9,9.8,19.3c0.8,1.6,2.4,3.1,1.9,5.3c-3.8,1.4-7.5,0.2-11.2-0.1
		c-6.1-0.4-10.9-3.4-14.3-8.2c-2.7-3.8-4.9-8.1-7.3-12.2c-1.7-3-3-6.1-4.9-9c-4-6.4-9.9-10.7-16.3-14.8c-6.7-4.3-13.7-5.3-21.3-4.3
		c-2.8,0.4-5.7,0.6-8.5,0.8c-6.1,0.3-12.2,0.4-18.1,2.1c-2.9,0.8-5.9,1.1-9,0.5c-8.5-1.6-16.6-3.9-23.5-9.4
		c-2.1-1.7-4.5-2.5-7.7-2.1c0.3,1.2,0.3,2.1,0.7,2.8c3.2,5.4,6.3,10.8,9.7,16.1c3.5,5.4,7,10.9,11.2,15.8c5.2,6.1,10.5,12,16.6,17.3
		c4.4,3.8,8.8,7.3,14.2,9.3c5.5,2,11.2,3.7,16.8,5.5c1.4,0.4,3,0.5,4.5,0.5c9.3,0.4,18.2-1.3,26.8-4.7c3.7-1.5,7.4-3.1,11.1-4.6
		c2.7-1.1,5.3-1.2,8.2,0.1c5.6,2.5,11.6,3.6,17.8,3.8c1.5,0,2.9,0.3,4.7,0.4c-0.4,0.8-0.6,1.4-1,1.8c-4.7,5.2-10,9.9-13.5,16.1
		c-0.1,0.2-0.3,0.3-0.4,0.4c-2.3,2.7-5,5.3-7,8.3c-4.1,6-8.2,11.9-11.6,18.3c-4.4,8.2-5.8,17.3-6.6,26.4c-0.4,4.1,0.2,8.4,1.1,12.4
		c1.7,7,3.9,13.9,6,20.8c0.7,2.5,1.5,5.1,2.2,7.7c0.3,1.3,1,2.3,2.2,2.2c0.8,0,1.9-0.8,2.2-1.4c1.8-4.7,4.7-8.7,7-13.1
		c1.3-2.5,2.9-4.9,4.3-7.4c1.1-1.9,2.6-3.2,4.9-3.5c4.8-0.6,7.8-3.7,9.9-7.7c2-3.7,3.9-7.4,5.7-11.2c0.9-1.9,1.8-3.7,4.1-4.5
		c2.5-0.9,4.1-2.8,5.2-5.1c1.5-3.1,3.1-6.1,4.1-9.4c1.8-6,3.1-12.1,3-18.4c0-1.5,0.3-3,0.2-4.6c-0.2-5.3,0.5-10.7-1.5-15.8
		c-1.1-2.8-2.6-5.5-3.8-8.3c-0.4-0.8-0.5-1.6-0.9-2.8c1.4,0,2.4-0.1,3.3,0.1c4.3,0.8,8.6,1.5,12.9,2.4c11.2,2.3,20.5,7.9,28.4,16
		c1.3,1.4,2.6,2.9,4.1,4c3.4,2.5,6.1,5.7,8.7,9c0.6,0.8,1,1.8,1.4,2.5c-6.8,3.4-13.4,6.4-19.7,9.8c-8.7,4.6-16.1,10.8-21.9,18.8
		c-1.1,1.5-2.4,3-3.5,4.5c-9.8,12.8-16,27.1-17.7,43.3c-0.7,7.1-0.3,14.3-1,21.4h10.2c5.2-5.3,11-9.5,19-10.5
		c6.2-0.7,11.4-3.8,15.5-8.8c2.4-2.8,4.1-5.9,5.6-9.2c1.4-3.1,3-6.3,6.4-7.7c5.6-2.3,8.1-7.1,9.3-12.2c1.9-7.9,3.5-16,3-24.3
		c-0.2-2.8,0.1-5.7,0.3-8.5c0.1-0.9,0.2-1.9,0.4-2.8c0.3-1.1,0.5-2.2,0.9-3.3c0.3-0.8-0.1-1.9,1.5-2.3c1,0.9,2.2,1.8,3.2,2.9
		c7.2,7.6,14.3,15.3,21.5,22.9c2.5,2.6,4.6,5.5,6.5,8.6c4.6,7.7,8.7,15.6,11.8,24c4,10.5,8.6,20.7,13.1,31c0,0.1,0,0.1,0.1,0.2h6.6
		c-0.1-0.4-0.1-0.9-0.2-1.3C1240.3,767.1,1239.9,754.3,1239.4,741.6z M1309.5,529.6c3.8-3.2,7.6-6.3,11.5-9.4c1.3-1.1,2.7-2,4.7-3.4
		c-4.7,0.6-7,4.5-11.6,5.5c2.7-3.2,4.9-5.7,8.2-7.1c3.3-1.4,6.4-3.3,9.5-5c0.5-0.3,0.8-1.1,1.6-2.3c-5.8,1.6-9.8,4.9-15.2,7.4
		c0.5-1.4,0.8-2.1,1.1-2.8c0.1-0.2,0.2-0.3,0.3-0.5c6.3-5.9,13.1-11,21.7-13c2-0.5,4-0.9,6.3,0.1c-0.3,1.2-0.6,2.2-0.9,3.2
		c2.6-0.5,5-1.9,7.8-1.7c0.1,1.8-1,1.9-1.7,2.2c-6,2.4-11.2,6.1-16.3,10c-0.5,0.4-0.5,1.3-0.7,1.9l0,0c10.1-6,20-12.3,32.1-15
		c-1.5,3.2-4.8,4.5-6.6,7.3c2,0.2,3-1,4.1-1.9c5.7-5.3,13.2-7.4,19.8-11c1.2-0.7,2.9-0.4,5.3-0.7c-4.3,3.8-9.6,4.7-12.5,8.6
		c0.6,1.3,1.4,0.9,2,0.6c2.9-1.7,5.8-3.5,8.8-5.1c-1.8,2.7-4.6,4.1-7.3,5.2c-4.6,1.9-8.3,5.1-12.3,8.1c1.3-0.4,2.6-0.8,3.8-1.3
		c1.2-0.5,2.4-1.1,3.6-1.8c4.9-2.8,9.8-5.7,14.8-8.5c2.3-1.3,4.7-2.3,7.9-3.7c-0.5,1.4-0.5,2.2-0.9,2.6c-1.1,1-2.4,1.9-3.6,2.8
		c-2.1,1.6-4.1,3.3-6.2,5c2.3,1.6,3.2-2.2,5.2-0.9c-2.6,3.4-9.7,8.6-15.1,10.9c0-1.1,0-2.1,0-3.1c-5.7,3.1-5.7,3.1-6.9,5.4
		c1.1-0.2,2-0.3,2.9-0.4c0,0.3,0.1,0.7,0,0.8c-3.4,2.4-6.8,4.8-10.4,7c-1.8,1.1-3.8,1.6-5.8,2.3c-1.9,0.6-3.9,1.1-6.7,2.6
		c2.1,0.1,3.1,0.1,4.2,0.2c-3.1,2.9-5.6,4.3-12.1,5.9c-10.3,2.5-20.6,2.5-32,0.3c8.8-2.4,17-2.3,25.2-4.1c-3.1-1.2-8.1-1.1-13.1-0.2
		c-4.1,0.7-8.2,1.2-12.4,1.4c5.9-2.3,12.2-2.4,18.3-3.6c6.1-1.2,12.2-2.3,19.2-4.6c-3.4-1.1-5.4,0.3-7.5,0.6
		c-2.3,0.3-4.5,0.8-6.7,1.1c-2.3,0.3-4.5,0.4-6.8,0.8c-2.1,0.3-4.1,0.8-6.1,1.2c-2.2,0.4-4.5,0.8-6.7,1.3c-2.2,0.4-4.2,1.5-6.3,1.7
		C1307.9,530.8,1308.9,530.1,1309.5,529.6z M1310.5,452.4c-0.2,0.1-0.4,0.1-0.6,0.2c0,1.2,0.1,2.4,0.1,3.8c-0.5-0.3-0.9-0.4-1-0.7
		c-0.9-1.9-2.1-3.7-2.7-5.6c-0.8-2.3-3.2-4.4-1.2-7.3c0.4-0.5-0.3-1.8-0.6-2.7c-1.4-4.3-2.9-8.7-4.4-13c-2.4-7.1-3.2-14.5-4.5-21.7
		c-0.3-1.6-0.7-3.3-1-4.9c-0.8,0.3-0.8,0.9-0.8,1.6c0.1,2.7,0.2,5.5,0.1,8.2c0,0.5-0.8,1-1.2,1.5c0-0.6,0.1-1.2,0.1-1.8
		c-1.8,4-1.2,7,1.7,18.6c1.5,6.2,5,11.5,7.2,18.4c-1.1-1-1.7-1.3-2-1.8c-4.1-5.7-8.2-11.4-10.5-18.2c-2.5-7.3-3.5-14.7-2.9-22.4
		c0.5-7.4,2.2-14.6,3.6-21.9c0.3-1.7,1-3.2,1.7-4.8c0.2-0.5,0.8-1.2,1.1-1.2c3.5,0.8,2.9-1.9,3.3-3.7c1-3.9,2.1-7.7,3.2-11.5
		c0.2-0.6,0.7-1.1,1.1-1.8c1.3,1.4,0.7,2.8,0.5,4c-2.2,11.8-0.4,23.5,1.4,35.2c0.5,3,0.7,6,1.1,9c0.4,3.4,0.8,6.7,2.4,10.6
		c0.5-1.2,1-1.8,1-2.3c-0.6-5.9-1.4-11.7-2.1-17.6c-1.1-9.8-3.1-19.5-2.2-29.5c0.1-0.8,0.2-1.5,0.4-2.2c0.1-0.3,0.4-0.6,0.9-1.2
		c0.2,3.1,0.4,5.9,0.6,8.6c0.2,3,0.2,6.1,0.5,9.1c0.2,2.8,0.6,5.7,1,8.5c0.5,2.8,1.1,5.6,1.7,8.4c0.6,3,1.2,5.9,1.8,8.9
		c0.6,2.8,0.9,5.6,2.3,8.5c1.6-2.2,0.5-4.1,0.2-5.8c-0.8-3.5-1.7-7-2.6-10.5c-1.9-7.2-2.7-14.5-2.8-22c-0.1-4.6-0.5-9.1-0.7-13.7
		c0-0.9,0.1-1.8,0.2-2.9c1.7,0.3,1.5,1.7,1.9,2.6c0.5,1,0.7,2.2,1.1,3.3c0.3,1.1,0.7,2.2,1,3.3c0.4,1.3,0.8,2.6,1,3.9
		c0.2,1.1,0.2,2.3,0.3,3.4c0.2,1.1,0.4,2.3,0.7,3.4c0.3,1,0.1,2.4,2,2.3c0-1.1,0.1-2.1,0.1-3.4c0.6,0.1,1.3,0.1,1.5,0.4
		c3.3,3.7,5.3,8.3,7.9,12.5c4.3,6.9,4.8,14.7,6,22.3c0.2,1.6,0.6,3.1,1,4.6c0.5-1.6,1-3.2,1.6-5.2c2.3,2.3,2.7,5,3.1,7.5
		c1.7,10.1-2.3,18.5-7.6,26.6c-0.9,1.4-2.1,2.5-3.3,3.9c-1.3-1.7-0.7-3.3-0.6-4.7c0.6-7.4-0.6-14.7-1.2-22.1c-0.2-2.6-1.3-4.9-3-7.1
		c0.6,6.5,1.3,13.1,1.8,19.6c0.2,3.2,0.3,6.4,0.2,9.6c0,1.9-0.4,3.8-2,5.5c-1.3-2.1-1.2-4.3-1-6.5l0,0c-0.7,0.6-1.3,1.2-2.2,1.9
		c-2.7-7.1-4.4-14.5-7.1-21.7c-0.1,0.9-0.3,1.9-0.2,2.8c0.8,6.4,1.5,12.8,3.4,19c0.7,2.3,1.5,4.7,0.5,7.7
		C1312.1,455.9,1311.3,454.1,1310.5,452.4z M1300,435.8c-2.8-6.4-5.4-11.9-5.8-18c-0.2-2-0.9-4-1.3-6c1,2.2,2.3,4.3,2.9,6.6
		C1297.2,423.9,1298.4,429.4,1300,435.8z M1299.8,527c-0.1-0.2-0.2-0.5-0.3-0.8c0.2,0.2,0.4,0.5,0.7,0.7
		C1300,527,1299.8,527.1,1299.8,527z M1237.7,468.8l0.2,0.4l-0.3,0.1L1237.7,468.8z M1284.4,512.8c1.9,3.5,4,6.9,5.8,10.4
		c0.8,1.5,1.3,3.2,1.8,4.8c0.2,0.5,0,1,0,2.1c-0.9-0.6-1.6-0.8-2-1.3c-1.9-2.4-3.9-4.5-7.2-4.8c-0.9-0.1-2.2-0.8-1.8-2.4l0,0
		c-5.1-2.8-10.2-5.7-15.3-8.6c-1.2-0.6-2.2-1.5-3.4-2c-0.3-0.1-0.9,0.2-1.3,0.4c3.7,2.8,7.4,5.6,11.1,8.4c-0.3,0.1-0.7,0.5-0.9,0.4
		c-3.1-1.3-6.3-2.6-9.4-4.1c-5.2-2.5-9.6-6-13.2-10.6c-3.6-4.7-6.8-9.6-9.9-14.6c-5.1-8.1-7.1-17.1-9.1-26.2c-0.2-1.1,0-2.2,0-3.4
		c1.9-0.2,1.6,1.4,2.1,2.2c0.7,0.9,1.1,2,1.6,3c0.5,1,1.1,2,1.7,3c0.6,1,1.3,1.9,1.9,2.8c0.7,1.1,1.5,2.2,2.2,3.3
		c0.6,1,1.2,1.9,1.8,2.9c0.6,1,1.1,2,1.8,2.9c0.7,0.9,1.4,1.8,2.2,2.6c0.7,0.7,1.5,1.4,2.5,1.8c-3.5-4.2-5-9.5-7.2-14.5
		c1.2,1.1,2.5,2.2,3.6,3.5c3,3.2,5.8,6.5,8.8,9.7c1,1.1,2.2,2.2,3.4,3c6.4,4.2,11.8,9.5,17.3,14.8c0.7,0.7,1.7,1.2,3.5,2.4
		c-0.6-1.7-0.6-2.5-1-2.9c-2.8-2.9-5.5-5.8-8.5-8.4c-3-2.6-6.3-4.9-9.3-7.5c-2.2-1.8-4.1-3.9-6.1-6c-3.6-3.9-7.2-7.8-10.7-11.8
		c-0.7-0.8-1-2-1.5-3c2.7,2.4,5.6,4.6,8.7,6.6c4.3,2.7,8.3,6,12.4,9.1c2.9,2.1,5.8,4.1,8.8,6.2c1-1.3-0.2-1.9-0.7-2.3
		c-2.1-1.9-4.3-3.7-6.5-5.5c-1.9-1.5-3.9-2.9-5.3-4.8c0.4-1.3,1.3-1,1.9-0.7c6.6,3,12.8,6.4,17.5,12.3c2.7,3.4,5.8,6.3,9.2,10
		c-0.1-1.7-0.1-2.8-0.2-4c0.6,0.1,1.2,0,1.6,0.2c4.4,2.8,7.3,6.6,8.5,11.7c1,4.4,1.6,9,1,13.8c-2.4-0.8-2.1-3.9-4.1-4.9
		c-1.2,0.3-0.7,1.1-0.5,1.8c0.7,2.1,1.6,4.3,2.3,6.4c0.2,0.6-0.2,1.3-0.3,2.3c-3.1-4.4-5.8-8.3-8.6-12.3c-0.2-0.2-0.6-0.3-1-0.4
		C1283.1,511.3,1284,512.1,1284.4,512.8z M1268.8,612.5c8.7-1.9,17.5-3.7,26.2-5.5c0.1,0,0.3,0,0.4,0.1c-0.3-0.4-0.7-1-1-1
		c-2.8,0-5.8-0.2-8.5,0.4c-4.7,0.9-9.2,2.4-13.8,3.5c-2,0.5-4,1.2-6.3,0.2c2-1.5,3.8-2.8,5.5-4c-0.4-1.1-0.7-1.8-1-2.4
		c4.8-4.7,10.7-7.3,16.6-9.8c5.2-2.2,10.7-4.1,16.2-5.4c6.6-1.6,13.3-3.2,20.1-3.6c5.1-0.3,10.2-1.2,15.2-1.7
		c1.4-0.1,2.8,0.1,4.3,0.9c-9.6,2.3-19.1,4.8-28.8,6.9c-6.2,1.3-12.1,3.4-17.9,5.8c-0.6,0.2-1,0.9-2,1.8c1.3,0,1.8,0.2,2.3,0
		c7.6-3.2,15.6-4.8,23.6-6.5c3.5-0.8,7.1-1.6,10.5-2.7c7-2.3,14.4-3.5,21.3-6.4c3.1-1.3,6.6-1.7,10.6-2.8c-0.7,1-1,1.6-1.4,1.9
		c-4.9,2.9-9.9,5.7-14.8,8.6c-0.4,0.3-0.7,0.9-1.4,1.9c4.6-1.6,8.5-3.2,11.9-5.8c1.5-1.1,3.2-2,4.9-2.9c1.3-0.6,2.7-1,4.8-1.7
		c-1.4,3.3-2.5,6-5,8c-5.8,4.7-12,8.7-19.1,11.2c-6.3,2.2-12.4,4.8-18.9,6.2c-0.2,0-0.4,0.5-0.8,1.2c0.8,0.2,1.5,0.5,2.1,0.4
		c2.4-0.5,4.8-1.1,7.2-1.9c3.2-1.1,6.3-2.6,9.6-3.6c5.5-1.6,10.6-4.1,15.5-7.1c0.6-0.4,1.3-0.6,2.2-1c-0.1,0.9,0,1.5-0.3,1.9
		c-1.9,3-4,6-5.9,9.1c-2,3.1-4.9,4-8.3,4.1c-0.9,0-1.9-0.1-2.8-0.1c-1.9,0-3.9-0.3-5.7,0.1c-7.6,1.8-15,3.8-22.1,7.5
		c1.4,1.3,2.4,0.3,3.5,0c1.3-0.3,2.5-0.9,3.8-1.2c1.2-0.3,2.5-1,3.8,0.3c-1.2,1.5-2.8,2.4-4.6,3.1c-4.8,1.8-9.6,3.6-14.4,5.5
		c-6.5,2.4-13.1,1.6-19.7,0.5c-1.1-0.2-2.1-0.6-3.6-1c3.2-1.8,6.4-0.8,9.4-1.2c2.9-0.4,6,0,9.7-1.7c-1.5-0.5-2.1-1-2.7-1
		c-3,0.1-6.1,0.2-9.1,0.4c-7.8,0.6-15.5-0.2-23.3-0.9c-0.3,0-0.5-0.5-0.8-0.7c2.7-1.7,4.5-2.2,8.8-2.9c2.9-0.5,6-0.2,8.9-1.8
		c-0.6-0.1-1.2-0.3-1.8-0.3c-4.5-0.4-9.1,0.4-13.6-0.4c-1.5-0.3-3.2,0.3-5.6,0.6C1265,613.9,1266.8,612.9,1268.8,612.5z
		 M1232.2,587.2c-0.2-0.5-0.4-1-0.5-1.5c0.1,0,0.4-0.1,0.4,0c0.3,0.4,0.5,0.9,0.7,1.3C1232.5,587.2,1232.2,587.2,1232.2,587.2z
		 M1238.3,584.8c-2,1,0.3,2.8-1.1,4.3c-2.5-5-4.8-10.1-8.9-14.1c0.6,2.2,1.3,4.5,1.9,6.7c-1.3,0.8-1.5-0.2-1.9-0.7
		c-4.4-6.5-7.9-13.3-11-20.6c-2.5-5.9-3.8-11.9-5-18c-0.9-4.5-0.9-9.1-0.5-14.3c1,0.9,2,1.4,2,2c0.7,5.4,3.5,10,5.5,14.9
		c2.5,6.2,5.3,12.2,8,18.3c0.8,1.7,1.7,3.3,2.5,4.9c2.1-0.6,1.6-1.7,1.1-2.8c-3.9-8.9-7.8-17.8-11.8-26.6
		c-2.3-5.1-3.7-10.4-4.8-15.8c-0.3-1.6-0.6-3.3,0.7-5.4c1.6,5,2.8,9.5,4.5,13.9c1.7,4.4,3.9,8.5,7,12.1c-2.3-6.5-5.2-12.9-6.9-19.7
		c2.6,0.5,2.7,3.1,4.4,4.6c0.6-0.5,1.3-1,2.1-1.7c4.2,3.9,6.2,9.4,9.6,14.4c-0.7-5.6-3.6-9.9-5.7-15.2c2.8,1.2,4.4,2.7,5.5,4.7
		c2.4,4.7,5.1,9.3,6,14.7c0.9,5.5,3.6,10.4,6.3,15.2c0.2,0.3,0.3,0.8,0.6,0.9c5.7,2.4,6.3,7.9,7.1,12.7c1,5.8-0.1,11.8-2.2,17.4
		c-0.2,0.5-0.6,0.8-1.5,1.8c-0.2-7.7-0.9-14.6-3.6-21.2c-0.6-1.4-1.2-2.7-2.4-4c0.1,0.9,0.1,1.8,0.2,2.6c1.6,7.8,2.8,15.7,2.4,23.7
		c0,0.6-0.5,1.1-0.8,1.6c-0.5-1.8-1.2-3.5-1.3-5.3c-0.1-3.1-2.1-5.1-3.5-7.4c1.1,6.1,2.2,12.2,3.3,18.3c0.1,0.3-0.2,0.7-0.5,1.4
		c-0.7-0.7-1.7-1.2-2-1.9c-0.7-2-1-4.1-1.5-6.1c-0.8-2.9-1.6-5.9-2.4-8.8C1239.8,586,1239.5,585,1238.3,584.8z M1198.8,397.9
		c0.3-0.1,0.6,0,0.9,0.1c-0.3,0.2-0.5,0.5-0.8,0.7c-0.1,0.1-0.3,0-0.5,0C1198.6,398.4,1198.7,398,1198.8,397.9z M1184.5,403.3
		l0.1,0.3l-0.4-0.1L1184.5,403.3z M1178.8,406.4c-0.4,1.2-1.4,0.8-2.1,1c0,0,0,0,0,0C1177.3,407.1,1178,406.8,1178.8,406.4z
		 M1176.6,407.4c-0.7,2.5-2.7,2.8-4.7,2.9C1173.5,409.3,1175,408.4,1176.6,407.4z M1150.4,436.4c1.2-1.6,2.6-3.2,4.2-5.1
		c-1.4-0.1-2.1-0.1-3.1-0.2c1.4-3.9,3.6-6.9,6.6-9.8c4.2-4.2,8.9-7.7,13.7-11c0.5,0.6,0.4,1.3-0.2,1.9c-1.3,1.2-2.8,2.4-4.1,3.7
		c-0.4,0.4-0.5,1-0.7,1.6c0.6-0.3,1.3-0.5,1.8-1c6.7-5.7,14.7-9.3,21.9-14.2c1.1-0.8,2.7-1,4.2-1.1c-5.6,5.9-12.5,10.2-18.8,16.5
		c3.7-0.6,5.7-2.2,7.7-3.8c1.1-0.9,2-2,3.5-2.2c-2.3,2.4-4.6,4.9-6.9,7.2c-2.2,2.1-4.5,4.1-6.7,6.2c-0.1,0.1,0,0.4,0.1,0.8
		c0.4,0,1.1,0.2,1.3-0.1c4.3-3.7,8.6-7.4,12.8-11.3c4.5-4.1,8.8-8.3,13.2-12.5c0.4-0.3,0.9-0.5,2.2-1.2c-1.9,3.9-4.4,6.4-6.4,9.3
		c-2,2.9-4.5,5.5-7.1,8.6c3.2-0.7,3.2-0.7,10.6-9.1c1,0.3,0.8,1,0.7,1.7c-0.9,6.4-4.2,11.2-9.8,14.6c-6.3,3.8-12.8,7.5-18.6,12.1
		c-2.2,1.7-4.9,2.9-7.4,4.2c-1.1,0.5-2.4,0.6-4.2,1c4.9-5.3,11.4-7.7,15.9-13.4c-2.7,0.1-4,1.4-5.5,2.4c-4.8,3.4-9.7,6.7-14.6,10
		c-1.4,1-3,1.7-4.5,2.5c-0.6,0.3-1.4,0.2-2.8,0.4c4-6.1,10-9.4,14.3-15.5c-1.4,0.4-2.2,0.3-2.6,0.7c-3.6,3.1-7.1,6.3-10.6,9.5
		c-0.9,0.8-1.9,1.7-3.7,3.3C1147.6,439.8,1149.1,438.1,1150.4,436.4z M1187.9,411c-0.1,0.1-0.2,0.2-0.3,0.3c0.1-0.2,0.2-0.4,0.3-0.6
		C1187.9,410.8,1187.9,410.9,1187.9,411z M1245.3,303c-0.3,1.8-1.2,1.6-1.9,1.7C1243.9,304.3,1244.5,303.8,1245.3,303z
		 M1192.4,323.2c4.3-2.8,8.7-5.5,13.1-8c1.9-1.1,3.9-2.3,6.3-0.6c0.5,0.3,1.7-0.3,2.7-0.5c-0.3-1-0.5-1.7-0.7-2.4
		c0.2-0.3,0.4-0.7,0.6-0.9c4.6-1.7,9.2-3.8,13.9-5c4.4-1.1,9-1.2,13.5-1.7c0.3,0,0.7,0.5,1.1,0.8c-5.6,0.6-11.1,1.5-17.2,4.4
		c1.8,0.1,2.6,0.3,3.3,0.2c6.9-1.3,13.8-2.7,20.7-4c2.2-0.4,4.5-0.6,6.8-0.9c2.8-0.3,5.7-0.5,8.5-0.8c3.3-0.3,6.4,0.1,9.6,1.1
		c-5.4,0.6-11.1,0.1-17.2,2.9c3,0.7,4.9,0.3,6.9,0c7.4-1.1,14.8-0.9,22.1,0.8c3.9,0.9,7.8,1.8,11.7,2.7c0.5,0.1,0.9,0.5,1.6,1
		c-1.3,0.4-2.3,0.6-3.7,1.1c2,1.8,4.4,1.2,6,2.3c0.2,1.1-0.6,1.3-1.3,1.5c-4.4,1.3-9,1.3-13.5,1.5c-2.8,0.2-5.6,0.2-8.5,1
		c1.5,0.5,2.9,1,4.7,1.6c-4.6,3.7-10.5,2-15.2,4.3c0.2,2,1.9,0.6,2.7,1.7c0.3,1.5-0.8,2.7-1.8,3.6c-3.3,3-6.9,5.4-11.4,6.2
		c-5.1,0.8-10.2,1.6-15.3,1.8c-3.9,0.2-8-0.4-11.9-0.9c-3.6-0.5-7.1-1.4-10.7-1.9c-1-0.2-2.1,0.2-4.1,0.5c3.4,2.2,6.5,2.3,9.3,3
		c2.9,0.7,5.8,1.3,8.7,1.9c0.3,1.7-0.8,1.9-1.7,2c-3.8,0.5-7.6,0.5-11.2-0.8c-1-0.3-2.1-1.2-3.2,0.1c1.6,2.9,5.6,0.6,7.2,3.2
		c-8.6,0.1-14.4-0.3-22-5.3c0.5-0.7,1.1-1.4,1.9-2.5c-1-0.1-2-0.5-2.3-0.2c-1.7,1.4-3.3,1.4-5.2,0.7c-1.4-0.5-3-0.6-4.4-1.1
		c-0.6-0.2-0.9-1-1.3-1.5c-0.3,0.2-0.6,0.3-0.9,0.5c0.3-0.2,0.5-0.4,0.8-0.6c2.2-1.9,4.7-2.1,7.5-1.4c2.2,0.5,4.3,1.6,6.7,0.8
		c0.4-0.1,0.7-0.7,0.8-1.2c0.1-0.2-0.4-0.7-0.7-0.8c-2.2-0.4-4.4-0.8-6.6-1.2c-0.3-1.3,0.6-1.5,1.3-1.6c5.1-0.8,10.1-1.6,15.2-2.4
		c6.4-0.9,12.7-2,19.1-2.7c3.5-0.4,7.2-0.1,10.7-0.3c1,0,2-0.6,4-1.3c-6.3-1.6-11.4,0.5-16.6,0.7c-5.1,0.2-10.2,0.6-15.3,1.1
		c-5.3,0.6-10.5,1.6-16.4,2.5c1.6-2,3.3-2.7,4.9-3.2c5.6-1.7,11.3-3.2,17-4.5c3.3-0.8,6.7-1.1,10.1-1.9c6.5-1.5,13.1-1.8,19.8-2.5
		c6-0.6,12.1-1.3,18.1-1.7c3.2-0.2,6.4,0,9.7,0c0.6,0,1.3-0.5,2.2-0.9c-4.7-1.7-10.5-1.7-31.8,0.7c-10.6,1.2-21.1,2.8-31.5,5.1
		c-10.5,2.3-20.2,6.7-30.5,9.9C1190,325.2,1190.2,324.5,1192.4,323.2z M1237.4,255.3c4.4-1.2,8.8-2.2,13.2-3.3c3.9-1,7.7-2,11.6-2.9
		c1.7-0.4,3.4-0.5,5-0.8c1.8-0.4,3.6-0.9,5.4-2.1c-1-0.2-2.1-0.6-3-0.5c-5.2,1.1-10.4,2.3-15.5,3.5c-4.2,1-8.3,2-13.2,3.1
		c1.8-2.8,4.2-3,6.2-3.8c1.9-0.8,3.9-1.6,5.7-2.5c2-1,3.9-2,5.6-3.7c-2.5,0.7-5,1.4-7.6,2c9-3.9,17.8-8.5,27.5-10.6
		c2.2-0.5,4.4-1,5.3-3.4c-0.5-0.3-0.9-0.7-1.1-0.7c-4.5,1.6-8.9,3.3-13.3,4.9c-6.3,2.3-12.6,4.4-18.8,6.8c-3.2,1.2-6.1,2.9-10.2,4.9
		c1.2-2.2,2.1-3.1,3.3-3.8c2.3-1.3,4.7-2.5,7-3.9c0.5-0.3,0.8-1.1,1.6-2.3c-7.2,1.4-11.6,6.6-17.7,8.8c0-2.3,1.5-3.4,2.7-4.5
		c7.1-6.7,15.3-11.9,24.2-15.8c7.3-3.2,14.7-6.2,22.8-6.8c2.6-0.2,5.2-1.1,7.8-1.8c2.4-0.6,4.8-1.1,7.3-0.8c0.5,0.1,0.9,0.5,1.7,0.9
		c-2.1,1.5-4.4,1.7-6.5,2c-6.8,1.1-13.2,3.7-19.5,6.2c-0.9,0.4-1.7,0.8-1.3,2.3c2.9,0,5.5-1.1,8-2.4c5-2.6,10.4-3.4,15.7-4.8
		c2.9-0.8,6-0.9,9-1.4c1.3-0.2,2.9-0.3,3.8-1c1.9-1.6,3.8-1.3,5.9-1.1c4.8,0.6,9.7,1.2,14.5,1.7c0.2,0.6-0.8,1.6,0.6,1.6
		c1.1,0,2.2-0.3,3.1,0.7c-2.9,2.6-14.5,9.4-21.8,13.3c-7.7,4-16.2,5.4-24.9,8.4c1.6,1,2.8,1,3.9,0.8c3.5-0.9,7-1.9,10.5-2.8
		c2.9-0.7,5.6-2.1,9.2-1.9c-2.3,4.5-4.8,8.2-9.7,9.3c-6.1,1.4-12.2,2.8-18.3,4.1c-2.2,0.5-4.4,1-6.7,1.3c-2,0.3-4,1.3-6,0.3
		c0.6,0.4,1.2,1,1.8,1c2.6,0.1,5.3,0.1,7.9-0.1c5.9-0.5,11.7-1.2,18.1-1.9c-0.8,1-1.1,1.8-1.8,2.3c-7.8,5.6-16.8,8-26.3,8.4
		c-5.7,0.2-11.4,0-17.1-0.6c-7.3-0.8-14.7-2-22.1-2.2c-0.5,0-1-0.3-1.6-0.5C1231.8,257.6,1234.4,256.1,1237.4,255.3z M1236.2,247.8
		c0.3-0.1,0.6-0.3,0.9-0.4c0.1,0,0.3,0.1,0.4,0.2c-0.3,0.2-0.5,0.4-0.8,0.6C1236.5,248,1236.4,247.9,1236.2,247.8z M1227.5,188.1
		c0.2,4.3,0.5,8.7,0.7,13.5c-1.9-2.5-3-4.8-3.6-7.4c-2.9-10.9-4.1-22-4.8-33.2c-0.3-4.1,0.8-8.3,1.2-12.4c0.1-1.3,0.3-2.5-0.3-3.9
		c-0.3,0.7-0.7,1.4-0.8,2.2c-2.3,10.5-2.2,21.1,0,31.6c1.3,6.1,2.2,12.3,3.4,19.2c-1-1-1.7-1.5-2-2.2c-2.5-5-3.8-10.3-5-15.7
		c-0.8-3.7-1.7-7.4-2.1-11.2c-0.4-3.7-0.5-7.5-0.4-11.3c0.1-3,0.5-6,0.8-9.1c0.2-1.5,0.4-3,0.8-4.5c1.3-4.6,2.7-9.1,4.1-13.6
		c1.6-4.9,4.1-9.3,7-13.5c0.3-0.1,0.7-0.2,1-0.3c0.8-6,1.6-7.4,6.5-12.3c0.9-0.9,1.8-1.8,2.7-2.7c1.2,1,0.8,2,0.6,2.8
		c-0.7,2.9-1.6,5.8-2.4,8.7c-1,3.6-1.9,7.1-1.2,10.9c1.5-1.5,1.8-3.5,1.9-5.5c0.1-1.9,0.4-3.7,1.6-5.3c0.6-0.8,0.8-2.1,0.9-3.2
		c0.1-2.3,1-4.4,2.3-7.2c0.4,1.3,0.7,1.8,0.8,2.4c0.5,5.1,1.4,10.1,3.1,14.9c1.1,3,1,6.3,1.5,9.5c0.2,1.1,0.3,2.2,0.5,3.3
		c0.8-0.1,1.1-0.7,1.2-1.5c0.2-1.6,0.3-3.3,0.5-5.3c3,2.3,3.6,5.3,4.3,8.2c2,7.8,2.1,15.8,1.5,23.8c-0.3,4.9-0.8,9.8-2.8,14.5
		c-2.4,5.6-4.6,11.2-7,16.8c-1.3,3-2.8,5.8-4.8,8.3c-1.4-0.5-1.1-1.5-0.9-2.3c0.3-1.7,0.9-3.3,1.2-5c0.3-1.8,0.5-3.7,0.8-5.6
		c0.3-1.9,0.7-3.7,1.1-5.5c0.4-2,1.1-3.9-0.3-6.4c-1.5,1.8-0.9,3.6-1.3,5.1c-0.4,1.7-0.7,3.3-1.1,5c-0.3,1.7-0.5,3.4-0.9,5
		c-0.4,1.6-0.8,3.3-1.3,5.2c-1.6-3.1-2.1-5.7-1.6-9.3c0.4-3.2,1-6.4,1.3-9.6c0.1-1.6,0.8-3.4-1-5.3c-0.2,0.9-0.3,1.5-0.4,2.1
		c-0.2,2.3-0.1,4.6-0.6,6.8c-1,4.9-1.2,9.8-0.9,14.7c0.1,2.4-0.3,4.9-0.5,7.4c-0.1,0.7-0.6,1.3-1.3,2.8c-2.4-9.5-2-18.4-3.5-28.2
		C1225.9,179.6,1227.3,183.9,1227.5,188.1z M1200.8,256c-0.1-0.5-0.1-1-0.1-1.4c0.3,0.5,0.6,1.1,1.1,1.9
		C1201.2,256.2,1200.8,256.1,1200.8,256z M1168.8,190.1c0.3,0.8,0.7,1.6,1,2.5c0,0,0,0,0,0c-0.5-0.7-1-1.4-1.6-2.1
		C1168.4,190.4,1168.6,190.2,1168.8,190.1z M1182.3,266.6c-0.3-0.4-0.4-0.8-0.6-1.3c0.2-0.1,0.4-0.1,0.6-0.2
		c0.2,0.3,0.4,0.6,0.6,0.9c0.2,0.3,0.2,0.7,0.5,1.5C1182.8,267,1182.5,266.9,1182.3,266.6z M1194.2,257.5c0.3,4.9,3.2,9.3,2.5,15
		c-2.5-4-4.4-7.7-5.6-11.7c-1-3.5-2.6-6.7-4.6-9.7c-0.3-0.4-0.8-0.6-1.2-1c-0.2,0.5-0.5,0.9-0.4,1.1c1.8,5.6,2.9,11.4,5.9,16.6
		c1.6,2.8,2.6,5.9,3.9,8.9c0,0.2,0,0.3,0,0.5c0-0.2,0-0.3,0-0.5c-0.2,0-0.5,0-0.6-0.1c-3.1-3-5.9-6.4-7.9-10.2
		c-2.2-4.2-3.8-8.7-6.2-12.8c-3.2-5.5-4.7-11.5-5.9-17.7c-0.4-2-1.3-3.9-2.3-7c-0.4,1.9-0.9,2.8-0.7,3.5c1.4,5.7,2.7,11.5,4.4,17.1
		c0.9,3.1,2.6,5.9,3.8,8.8c0.4,0.9,0.6,1.8,1.3,3.8c-4.2-5.6-5.2-11.4-8.1-16.2c-1.2,0-1.4,0.7-1.2,1.5c0.7,2.5,1.5,5,2,7.7
		c-1.7-2-3.2-4.1-4.2-6.5c-3.5-8.2-6.6-16.6-6.7-25.7c0-3.8-0.8-7.6-1-11.3c-0.2-3.3-0.4-6.7,1.2-9.9c0,0,0,0,0,0
		c0.5-3.8,0.9-7.5,1.4-11.3c0.1-0.9,0.5-1.7,1.1-3.5c0.9,2.5,0.5,4.1,0.7,5.7c0.2,1.9,0.3,3.8,0.4,5.7c0.1,1.7,0.1,3.4,0.3,5.1
		c0.2,1.7,0.5,3.3,0.8,5.5c1.3-2.1,1.1-3.8,1.1-5.5c0-3,0-6.1,0.2-9.1c0-0.5,0.9-1,1.4-1.5c-0.1,1.3-0.5,2.6-0.3,3.9
		c0.8,5.2,1.7,10.5,2.8,15.7c1,4.8,2.3,9.6,3.6,14.4c0.4,1.6,1.2,3.2,1.9,4.8c0.2,0.4,0.9,0.5,1.8,0.9c-1.6-6.1-2.9-11.7-4.4-17.3
		c-1.5-5.5-2.5-11.1-2.9-16.8c-0.4-5.9-0.9-11.7-1.3-18c3.2,4.5,6,14.1,7.5,25c0.9-0.3,1.7-0.6,2.6-0.9c1.8,5.2,3.7,10.4,5.3,15.6
		c1.5,5,2.4,10.2,3.6,15.2c1.2-3.6,1-4.5-1.2-13.8c-1-4.4-3.1-8.5-3.6-13.8c7.5,8.2,13,16.6,15,26.8c1.2,6.3,1.4,12.8,1,19.3
		c0,0.2-0.4,0.4-0.7,0.7c-0.5-1.4-1-2.7-1.4-4.1c-0.2,0-0.4,0.1-0.5,0.1c0.1,2.4,0.1,4.9,0.3,7.3c0.2,2.4,0.7,4.8,0.3,7.9
		c-2.1-2.6-2.4-5.1-2.5-7.4c-0.2-5.5-2.7-10.2-4.7-15.1C1191,248,1193.9,252.5,1194.2,257.5z M1151.7,281.9c0.2,0.2,0.4,0.5,0.6,0.7
		c-0.2,0.2-0.3,0.4-0.5,0.6c-0.1-0.3-0.3-0.6-0.4-0.9C1151.5,282.2,1151.7,282.1,1151.7,281.9z M1149.8,295c0-0.4,0-0.8,0.1-1.2
		C1150.6,294.3,1150.5,294.7,1149.8,295z M1144.9,308.8c-0.1-0.9-0.2-1.7-0.3-2.6C1145.5,307,1145.9,307.8,1144.9,308.8z
		 M1145.1,300.6c0.4-0.1,0.8-0.1,1.2-0.2c-0.1,0.1-0.2,0.4-0.2,0.4C1145.8,300.8,1145.5,300.7,1145.1,300.6z M1145.1,300.6
		C1145.1,300.6,1145.1,300.7,1145.1,300.6C1145,300.7,1145,300.6,1145.1,300.6C1145,300.6,1145.1,300.6,1145.1,300.6z M1144.8,303.1
		c0.2,0.9,0.7,1.9-0.1,2.7C1144.7,304.9,1144.7,304,1144.8,303.1C1144.8,303.1,1144.8,303.1,1144.8,303.1z M1155.6,356.5
		c-0.8-0.5-1.4-0.6-1.6-1c-0.9-2-1.3-4.4-4.3-4.6c-0.6-0.1-1.3-1.3-1.7-2.1c-2.4-4.6-4.1-9.5-4.5-14.6c-0.6-7.8-0.6-15.5,0.5-23.3
		c0.1-0.6,0.5-1.2,0.9-1.7c0.5,2.5,1,4.9,1.6,7.6c0.7-0.5,1.4-0.6,1.5-1c0.3-1.1,0.6-2.2,0.5-3.3c-0.8-5.8,0.4-11.5,1.4-17.1
		c1.3,2.5,0.4,5.4,1.1,8.1c0.2,0.9,0.5,1.7,0.8,3c0.7-0.8,1.2-1.2,1.2-1.6c0-4.1-0.1-8.3,0-12.4c0-1.6,0.4-3.3,1.2-4.9
		c0.3,1.5,0.6,2.9,1,4.4c0.3,1.1,0.3,2.4,0.9,3.3c3.7,6,2.2,12.5,2.1,18.8c0,2.4-0.8,4.8,0.2,7.1c1.1,0.1,1.3-0.6,1.3-1.4
		c0.2-4.5,0.3-9.1,0.5-13.6c0-0.9,0.2-1.8,0.3-2.7c1.8,0,2.1,1.1,2.3,2.2c0.8,3.9,1.5,7.8,1,11.9c-0.5,4.3-0.8,8.7-2.2,13.2
		c-1-0.8-1.7-1.5-2.7-2.4c-1.3,2.3-0.2,4.5-0.3,6.7c-0.1,2.3-0.3,4.6,0,6.8c0.3,2.3,0.3,4.5-0.3,6.8c-1.7-2.3-2.3-3.7-2.9-5.7
		c-0.7-2.1,0.4-4.6-1.7-6.9C1151.8,343,1155.3,349.4,1155.6,356.5z M993.1,299c-0.5-0.8-1-1.7-1.7-2.8c-1.8,1.8-0.6,4.3-1.9,6.3
		c-1.9-5.9-1.1-12.2-4.2-18.4c-1.4,5.5,1,10,1.3,14.6c0.3,4.5,1.2,9,1.9,14c-2.8-3.4-3.3-7.3-4.6-10.8c-1.8-0.1-0.9,1.8-2.1,2.5
		c-2.5-4.9-4.9-9.8-7.5-14.6c-1.9-3.5-4.1-6.8-6.3-10.2c-0.4-0.6-1.1-1-2,0.1c2.6,4.4,5.4,8.8,7.8,13.5c2.4,4.7,4.3,9.7,6.7,15.2
		c-1.1-0.6-1.8-0.8-2.1-1.2c-1.4-1.6-2.6-3.2-3.9-4.9c-2.5-3.3-5-6.7-7.5-10c-0.6-0.7-1.2-1.5-2.7-1c1,5,5.2,8.1,7.9,12
		c2.7,4,6.2,7.4,9.4,11.1c-1,0.7-1.4-0.2-1.9-0.6c-2.4-2.2-4.8-4.4-7-6.7c-3.5-3.8-6.8-7.7-10.1-11.4c-1.2,0.4-1.3,1.2-0.9,1.8
		c1,1.4,2.1,2.7,3.2,4c1.1,1.3,2.4,2.4,3.4,3.8c3.2,4.6,7.5,8,11.5,11.8c1.9,1.8,3.8,3.6,5.3,6c-0.6-0.2-1.4-0.3-1.9-0.7
		c-4.4-3-9.4-4.9-13.2-8.8c-0.7-0.7-1.5-1.2-2.3-1.7c-5.7-3.6-10.3-8.4-14.9-13.2c-0.7-0.7-1.2-1.5-1.7-2.2
		c-8.2-10.6-12.4-22.9-15-37c1.7,1.9,2.8,2.9,3.7,4.1c0.9,1.2,1.7,2.5,2.5,3.7c2.9,4.5,5.7,9,8.7,13.4c0.4,0.6,1,1,1.4,1.5
		c1.4-0.4,0.9-1.2,0.7-1.8c-0.3-0.7-0.7-1.4-1.1-2c-4.9-7.2-9.7-14.5-14.7-21.7c-3.3-4.8-3.4-4.8-3.3-12.5c1.8,1.5,1.4,3.7,2.3,5.1
		c1.1,1.7,2.5,3.4,3.7,5.1c1.1,1.5,2.2,3.1,3.2,4.7c1,1.5,1.5,3.5,4,3.9c0-0.8,0.1-1.4-0.1-1.7c-1.5-2.4-3.2-4.7-4.6-7.2
		c-1.3-2.1-2.4-4.3-3.5-6.5c-0.6-1.2-0.7-2.6-1.4-3.7c-4.1-6.5-4.1-13.7-3.2-20.9c0.5-3.9,0.5-7.9,1.6-12.3c2.5,1.9,2,4.5,3,6.4
		c1,2,1.5,4.3,2.3,6.4c0.8,2.1,1.6,4.2,2.7,7.2c0.6-2.6-0.2-4-0.5-5.3c-0.3-1.3-0.7-2.6-1.1-3.8c-0.4-1.5-0.8-2.9-1.2-4.4
		c-0.3-1.3-0.5-2.6-0.8-3.9c-0.3-1.4-0.5-2.8-0.1-4.5c0.7,0.8,1.5,1.5,2,2.5c3,6,7,11.3,11.5,16.2c1.6,1.7,2.5,3.8,3.4,5.9
		c1.3,3.2,2.6,6.3,4.1,9.4c0.4,0.9,1.3,1.6,2,2.5c0.5-0.6,0.9-0.9,0.8-1.1c-0.7-3.1-1.5-6.2-2.3-9.3c5.4,0,8.6,1.7,10.9,5.8
		c1.6,3,3.2,6,4.7,9.1c0.7,1.4,1.2,2.8,1.5,4.3c1,4.6,1.8,9.3,2.6,14c0.3,1.4,0.1,3.1,2,4.2c0.3-0.6,0.9-1.3,0.8-1.8
		c-0.4-2.8-1-5.6-1.6-8.4c-0.4-1.8-1.4-3.5-0.8-5.7c2.1-0.2,3.2,1.3,4.3,2.5c5,5.2,7.1,11.7,7.4,18.7
		C993.8,284.7,994,291.8,993.1,299z M1047.3,261c0.5-0.6,1-1.3,1.5-2.1C1049.3,260.6,1048.3,260.9,1047.3,261z M1022.6,357.9
		c-0.1,0.6-0.2,1.1-0.8,1.5c-1-3.4-1.4-6.6-0.8-10c0.4-2.2,0.7-4.5,0.9-6.8c0.6-7.4,1.5-14.7,3.7-21.9c0.6-1.9,1.5-3.9,0.4-6
		c-1.4-0.3-1.7,0.7-1.9,1.6c-1.6,8.7-3.8,17.3-4.9,26.1c-0.1,0.6-0.3,1.1-1.2,1.5c-0.2-0.9-0.5-1.8-0.5-2.6
		c0.3-6.1,0.6-12.1,1.2-18.2c0.6-6.6,2.1-13.1,4.7-19.3c1.6-3.8,2.7-7.9,4.3-11.8c1.4-3.3,3-6.5,4.7-9.8c3.6-6.9,7.3-13.8,12.8-19.5
		c0.6-0.7,1.3-1.2,2-1.8c1.1,1.2,0.4,2.5-0.2,3.6c-1.8,3.8-3.6,7.5-5.6,11.2c-3,5.5-6.1,11-7.7,17.1c-0.4,1.4-1.3,2.7-1.9,4.1
		c-1,2.3-1.9,4.5-2.8,6.8c-0.1,0.3,0.4,0.8,0.7,1.3c0.5-0.3,0.9-0.4,1-0.7c2.1-4.2,4.7-8.3,6.2-12.8c2.6-7.4,6.4-14.2,10.1-21
		c1.5-2.8,3.2-5.5,4.8-8.4c1.9,2,1.9,2,2.6,4.8c-2.3,4.2-5.1,8.2-6.2,13c0.5,0.2,0.6,0.4,0.8,0.3c0.2,0,0.4-0.2,0.4-0.3
		c1.8-3.3,3.7-6.6,5.5-9.9c0.1-0.1,0.3-0.2,0.5-0.3c1.2-0.1,1.3,1.1,1.8,1.8c0.5,0.8,1,1.6,1.5,2.6c-1.8,2.4-3.3,4.9-3.4,8.1
		c-0.1,2-0.8,4.1-1.5,6c-1.9,4.6-3.9,9.1-6.1,13.5c-1.1,2.2-2.1,4.4-2.3,6.7c1,0.9,1.8,0.5,2-0.2c1.1-4.7,3.7-8.7,5.7-13
		c2.3-5,4.2-10.2,5.5-15.6c0.2-0.7,0.5-1.3,0.7-1.9c1.4-0.2,1.4,0.8,1.7,1.4c2.6,6.2,3.1,12.5,0.7,18.9c-0.4,1.1-0.9,2.1-1.1,3.2
		c-0.4,2.7-1,5.1-3.7,6.5c-0.6,0.3-0.9,1.2-1.5,2.1c1.3,0.8,2.2,1.4,3.1,2c0.1,0.3,0.3,0.6,0.3,1c0.3,5.1-1.2,9.8-3,14.4
		c-0.6,1.6-1.7,3-2.7,4.3c-1.5,2-3.1,3.9-4.8,5.6c-2.2,2.2-3.7,4.7-5.1,7.5c-2,4.1-4.2,8.1-6.2,12.2c-1.6,3.3-4.7,4.8-7.4,6.5
		c-1.2-0.6-0.7-1.4-0.5-2c2.3-5,4.6-10,7.1-14.9c1.4-2.9,3-5.7,4.9-8.3c2.4-3.4,3.9-7.2,6.5-11.4c-3,2.1-3.9,3.3-5.9,6.7
		c-1.5,2.6-3.3,5.1-4.9,7.7c-1.5,2.3-2.9,4.6-5.1,8.1c0.2-4,0.6-6.5,1.7-8.9c1.8-4,3.6-8,5.4-11.9c0.7-1.5,1.6-3,1.2-4.8
		c-1.2-0.6-1.8,0.1-2.2,1c-2.3,5.2-4.6,10.4-6.7,15.7c-1.2,3-1.9,6.2-2.9,9.2c-0.4,1.3-0.6,2.5-1.3,3.8c-0.8-4.1,0.7-8,1.2-12
		c0.6-3.9,1-7.9,1.9-11.8c1-4.1,2.4-8,3.8-11.9c1.4-3.7,3-7.4,4.5-11c-1.1-0.8-1.5-0.2-1.8,0.5c-4.5,11.1-9.8,21.9-11.3,34
		C1024.6,346.7,1023.5,352.3,1022.6,357.9z M1033.7,408.6c0.4-2.5,1-3.2,2.8-2.6C1035.7,406.7,1035.1,407.3,1033.7,408.6z
		 M1035.5,401.6c-2,2-4.2,3.9-6.1,6c-1.2,1.3-2.5,2.1-4.2,2.8c-2.1,0.8-4.2,1.7-5.9,3.3c0.8,0.7,1.5,1.3,2.3,2
		c-1.3,1.4-2.6,2.8-3.8,4.2c-2.2,2.5-4.7,4.4-7.9,5.5c-3.4,1.2-6.3,3.2-9,6.1c2.5,1.3,4-1.7,6-0.9c-0.6,2.9-2.7,4.5-5.1,5.7
		c-3.1,1.6-6.3,2.8-9.8,2.3c-1.3-0.2-2.6-0.3-3.9-0.7c-2.7-0.7-5.5-1.6-8.2-2.4c1.8-2.4,1.8-2.4,3.9-3.4c2.9-1.4,5.7-2.9,8.6-4.5
		c0.3-0.2,0.3-0.9,0.5-1.6c-0.8,0.1-1.4,0-1.8,0.2c-4.4,1.8-8.7,3.9-13.2,5.4c-4.7,1.5-9.5,2.3-14.4,3.3c-0.7,0.1-1.5-0.2-2.2-0.5
		c-4-1.7-7.8-3.7-10.4-7.3c-0.8-1-1.7-1.9-2.8-3c2-0.6,4.9-0.3,4.2-4.1c6-1,11.7-3.2,17.1-5.8c5.2-2.4,10.7-3.9,16-5.8
		c1.1-0.4,2.1-0.9,1.7-2.5c-2.2-0.4-4.3,0.7-5.9,1.7c-4.1,2.6-8.8,3.3-13.2,5.2c-5.6,2.4-11.3,4.4-17.5,5c-0.3,0-0.7-0.2-1.3-0.4
		c5.9-2.5,11.5-5,17.2-7.4c-7.7,0.7-14.3,4.7-21.8,5.9c-0.2-1.3,0.9-1.6,1.6-2c8-4,15.8-8.5,24.3-11.2c1.4-0.5,2.8-1.2,4.1-1.9
		c9-4.3,18.2-7.9,28.1-9.1c4.5-0.5,9.1-0.4,13.6-0.5c0.3,0,0.6,0.4,0.9,0.6c-8.3,3.4-17.8,2.3-25.9,6.7c2.6,0.5,5.1-0.3,7.7-0.8
		c5.8-1.2,11.5-2.4,17.3-3.4c2.1-0.4,4.4-1.2,6.2,1.3c0.3,0.4,1.8,0.1,2.7-0.1c3.2-0.7,6.4-1.2,9.8,0.1c-3.2,2.3-7.9,1.5-11.3,5.9
		c5.1-1.5,9.1-3,14.2-2.6C1036.9,400,1036.2,400.8,1035.5,401.6z M1076.1,402c-0.6,3.3-1.5,6.6-2.5,10.8c-1.3-3.1-0.4-5.2-0.2-7.3
		c0.1-2.1,0.3-4.2,0.5-6.2c0.2-2.1,1.3-4.2-0.3-7c-2,3.1-2,6-2.6,8.6c-0.6,2.7-0.5,5.6-0.8,9.2c-0.7-1.2-1.1-1.6-1.1-2.1
		c-0.5-7.2-1.4-14.4,0.7-21.5c0.5-1.8,0.6-3.7,0.9-5.6c0.1-0.8,0-1.6,0.2-2.3c2-7.1,3-14.5,6-21.3c2.6-5.9,4.8-12,7.4-17.9
		c2-4.5,4.7-8.6,8.3-12c2.1-1.9,3.7-4.4,5.6-6.5c1.2-1.4,2.1-3.2,4.7-3.5c-0.4,4.9-2.6,8.8-4.8,12.7c-2.2,4-4.3,8-6.4,11.9
		c1.5,0.9,2,0.2,2.5-0.6c3.3-5.6,6.9-11,9.3-17c0.2-0.4,0.7-0.8,1.3-1.4c0.9,4.5,1,8.5-1.2,12.4c-2.2,4-3.9,8.2-5.8,12.4
		c-0.2,0.3-0.4,0.7-0.4,1.1c0,0.3,0.2,0.9,0.4,0.9c0.5,0,1.3,0,1.4-0.3c1.6-2.8,3.1-5.7,4.6-8.5c0.6-1.1,1.4-2,2.3-3.4
		c1.5,2.8,1.8,5.1,1.4,7.6c-0.8,5.3-1.9,10.4-4.5,15.2c-0.9,1.6-1.5,3.5-2.1,5.3c-0.3,0.8-0.1,1.7-0.2,3.2c2.8-1.6,2.9-4.1,3.9-6
		c1.1-2,1.9-4.1,2.8-6.2c0.9-2,1.6-4.1,2.8-7.2c1.6,7.4,2.8,13.5,0.9,20.1c-1.7,5.7-3.8,11.1-7.6,15.8c-1.9,2.4-3.7,4.8-6.8,4.4
		c-3.1,4.9-5.9,9.3-8.7,13.8c-1.4-0.6-0.6-1.4-0.4-1.9c0.1-0.7,0.5-1.4,0.8-2.1c2.5-4.9,5-9.8,7.6-14.7c1-1.8,1.9-3.7,1.9-5.8
		c-1.3-0.6-2,0.2-2.4,1c-1,1.9-1.7,3.8-2.6,5.7c-2.9,5.8-5.8,11.5-8.8,17.2c-0.5,0.9-1.4,1.7-2.3,2.7c-0.1-5.3,1.3-9.2,9.9-28.4
		c-0.9-0.8-1.3,0.1-1.5,0.6c-2,4.1-4,8.2-6,12.3c-1.4,3.1-2.8,6.1-4.4,9.6c-1.6-2.7,0.8-5.1-0.2-7.4
		C1077.5,394.6,1077.3,395.1,1076.1,402z M967.2,595.9c0.1,0.2,0.2,0.5,0.3,0.7c-0.2-0.1-0.3-0.3-0.5-0.4
		C967.1,596.2,967.2,596,967.2,595.9z M1058.5,632.6c-2-0.5-3.7-1.1-6-0.6c-2.4,0.5-5.2-0.6-7.7-1.4c-4.5-1.4-8.9-3.2-13.7-3.8
		c-1.4-0.2-2.8-1-4.5-1.7c0.3,0.8,0.3,1.5,0.6,1.6c1.1,0.7,2.3,1.3,3.6,1.7c6,1.8,12,3.6,18,5.4c1.6,0.5,3.1,1.1,4.8,1.7
		c-0.7,1.4-1.7,1.1-2.6,1.2c-2.5,0.1-4.9,0.1-7.4-0.1c-10.1-0.9-20.1-2.2-29.5-5.9c-4.2-1.6-8.3-3.8-12.4-5.7
		c-2.6-1.2-5.1-2.5-7.7-3.7c-0.6-0.3-1.3-0.2-2.2,0.5c3.5,2.1,7,4.2,10.6,6.2c8.2,4.5,16.7,8.3,26,9.7c3.4,0.5,6.7,1,10.1,1.5
		c0.5,0.1,1,0.3,2.7,0.9c-3.7,0.7-6-0.6-8.4-0.4c-2.4,0.1-4.8,0-7.2-0.1c0.1,0.5,0.1,1,0.3,1.1c2,0.6,4,1.1,5.9,1.5
		c0.3,0.8,0.5,1.5,0.7,2.1c5.5,2,11.1,1.8,16.6,0.5c0.4,1.6-0.7,1.3-1.2,1.7c-0.3,0.2-0.7,0.2-1.1,0.4c-9.6,3.8-19.3,3.6-29,0.3
		c-3.4-1.2-7-1.5-10.3-3.2c-6.2-3.2-11.3-7.7-16.6-12c-0.8-0.7-1.8-1.3-2.7-1.9c0.1-0.2,0.2-0.5,0.2-0.7c0,0.2-0.1,0.5-0.1,0.7
		c0.7-0.8,1.5-1,2.5-0.6c2.4,1.1,4.8,2.3,7.3,3.3c1.9,0.8,3.9,1.4,5.7,2c0.8-1.2,0.5-1.8-0.3-2.2c-3-1.6-6.1-3-9.1-4.6
		c-4.5-2.5-8.8-5.1-13.2-7.8c-0.8-0.5-1.5-1.1-2-1.9c-3.5-5.1-7.7-9.9-10.6-15.4c-0.4-0.7-1.4-1.1-2.2-1.6c0-0.3,0.1-0.5,0.1-0.8
		c0,0.3,0,0.5,0,0.8c3.1-0.1,5.2,2.5,8.6,3.8c-0.5-1.2-0.5-1.9-0.9-2.3c-2.1-2-4.3-4-6.4-5.9c1.6-0.5,3.2,0.1,4.7,0.6
		c4.2,1.3,8.3,2.6,12.5,4c1.2,0.4,2.5,0.9,3.6,1.6c5.1,3.6,11,5.8,16.6,8.6c2.5,1.3,5.2,1.9,7.9,2.2c0.5-1.7-0.5-2-1.3-2.4
		c-3.5-1.5-7-2.8-10.5-4.3c-2.4-1-4.8-2.2-6.7-3.9c0.5-1.9,1.8-1.7,2.8-1.5c5.2,1.1,10.4,2.3,15.6,3.4c1.4,0.3,2.8,1.3,4.4,0.3
		c-2.5-3.4-6.8-3.1-10.1-5c3.1-0.6,8.2,0.1,12.8,1.6c3.9,1.3,7.8,2.6,12.6,4.2c-2.7-4.9-7.6-4.5-10.9-7.4c3.1-1,6-0.9,8.9-0.7
		c3,0.1,6,0.8,8.7,2.3c7.2,3.9,12.9,9.3,17.3,16.5c-1.3,0.2-2.1-0.4-3-0.8c-0.8-0.4-1.6-1-2.3-1.6c-3.6-3.1-7.9-5.2-12.1-7.4
		c-0.4-0.2-1.1-0.1-2.1-0.2c0.3,0.9,0.3,1.7,0.7,2c2.4,1.6,4.8,3,7.2,4.6c2.7,1.8,5.3,3.7,7.9,5.6c0.7,0.5,1.2,1.3,1.7,2
		c-0.9,1.2-1.5,0.3-2,0.1c-0.7-0.3-1.3-0.7-2-1.2c-3.3-2.2-6.6-4.5-10.6-5.5c-0.5-0.1-1,0.1-1.9,0.2c0.9,2.4,3,2.4,4.5,3.3
		c1.6,1,3.3,1.9,4.9,2.9c1.6,1,3.2,2.1,4.6,3.3c1.5,1.2,2.9,2.4,4.3,3.7c1.3,1.3,2.6,2.6,3.8,3.9
		C1059.9,633.2,1059.2,632.8,1058.5,632.6z M1114,602c-0.1-0.1-0.3-0.3-0.3-0.4c0.1-0.3,0.2-0.6,0.3-0.9c0.2,0.2,0.5,0.3,0.5,0.6
		C1114.5,601.4,1114.2,601.8,1114,602z M1090.2,528.9C1090.2,528.9,1090.2,528.9,1090.2,528.9c-0.1-0.3-0.2-0.6-0.3-0.9
		C1090,528.3,1090.1,528.6,1090.2,528.9z M1088.6,530.1c0.3-0.8,0.8-1.2,1.6-1.1c-0.9,1-0.5,3-2.5,3.1
		C1088,531.4,1088.3,530.7,1088.6,530.1z M1087.7,532c0.3,0.6,1,1.3,1,1.9c-0.1,1.6-0.6,3.2-0.9,5C1084.9,537,1085,534.7,1087.7,532
		z M1088.5,601.3c-2-7.8-3.8-15.8-4.9-24c-0.3,0.8-0.7,1.5-0.7,2.3c-0.1,6.9,1.1,13.6,3,20.2c2.6,9.1,5.1,18.3,8.5,27.2
		c0.3,0.8,0.4,1.7,0.6,2.7c-1.8-0.5-2.2-1.9-2.7-3c-3.6-7.6-7.3-15.1-9.5-23.2c-0.8-2.9-1.4-5.9-1.7-8.9c-1.2-10.8-1.8-21.6-1-32.4
		c0.3-3.5,0.6-7.1,2-10.6c1.1-2.7,1.4-5.8,2.1-9.1c1.1,0.4,2,0.8,2.6,1c0.2,3.7,0.4,7,0.6,10.4c0,0.5,0.5,1,1,2
		c2.2-5.9,0.5-12,2.6-17.7c2.7,7.8,2,16,5.1,23.8c2.1-2.4,1.6-4.8,1.4-7.2c-0.1-0.9-0.7-1.8-0.8-2.7c-0.2-1.4-0.3-2.9-0.5-5.5
		c1.2,1.5,1.8,1.9,2,2.5c1.3,4.9,2.6,9.9,3.9,14.8c0.1,0.5,1,0.9,1.5,1.3c0.2-0.7,0.6-1.4,0.5-2c-0.3-2.2-0.9-4.4-1.4-6.8
		c3.5,1.1,4.2,1.9,4.6,4.8c1.2,8.5,2.3,16.9,3.5,25.4c0.1,0.5,0.5,0.9,0.8,1.5c0.5-0.6,1-1,1.1-1.4c0.3-3,0.4-6-0.3-9.1
		c-0.8-3.6-1.3-7.4-1.3-12.5c3.6,6,6.3,10.8,6.4,16.8c0.1,5.5-0.1,11-1.7,16.4c-0.3,1-0.7,2.1-2,2.1c-0.3-2-0.6-4.1-0.9-6.1
		c0-0.1-0.3-0.2-0.9-0.5c-0.4,1.2-1.1,2.4-1.2,3.6c-0.4,3.8-0.4,7.6-0.8,11.4c-0.8,7.6-2.6,14.9-5.8,22.1c-0.8-3.1-0.7-5.6-0.1-9.8
		c1.1-7.7,2.1-15.4,2.9-23.2c0.6-5.1-0.5-10.1-2-16.1c-0.4,1.5-0.8,2.2-0.7,2.7c1.9,10.5,0.1,20.8-1.8,31.1
		c-0.5,2.5-0.8,5.1-1.3,8.2c-2.8-2.6-1.7-5.7-2.6-8.2c-1-2.8-1.9-5.7-2.7-8.7c-0.7-2.8-1-5.6-1.8-8.3c-0.8-2.7,0.1-5.7-1.9-8.7
		c-0.5,1-1,1.5-1,2.1c0,1.7,0,3.5,0.5,5.1c1.3,4.6,1.6,9.3,3.1,13.9c1.4,4.2,2.5,8.7,1.7,14.3
		C1092.5,617.2,1090.5,609.2,1088.5,601.3z M1088.2,664.1c-0.1,2.8-0.1,2.9-2.8,4.1C1086,666.7,1086.8,665.3,1088.2,664.1z
		 M1114.6,668.4c0.1,4.9-0.1,9.8-1,15.7c-1.8-3.4-0.5-6.1-0.9-8.4c-0.9-0.8-1.7-0.6-1.8,0.3c-0.3,2.1-0.6,4.1-0.6,6.2
		c-0.1,4.6-0.8,9-2.2,13.4c-1.1,3.4-1.7,7-2.9,11.8c-0.4-4.5-0.6-7.8-1-11c-0.1-0.5-0.9-0.8-1.9-1.6c-0.3,2.1-0.5,3.6-0.7,5.1
		c-0.5,3.6-0.8,7.2-1.5,10.7c-0.9,4.3-2.8,8.1-6.2,11.9c-0.6-2.3-1-4.1-1.7-6.7c-2.1,4.7-1.6,8.8-2.5,13.5c-1-3.5-0.5-6.3-0.5-9.1
		c0-2.5,1.3-5-0.2-8.3c-1.2,3.3-1.6,6.1-2,8.8c-0.3,2.6-0.5,5.3-0.9,7.9c-0.1,0.9-0.5,1.9-1,2.6c-0.4,0.5-1.4,0.6-2,0.6
		c-0.4,0-0.9-0.7-1.1-1.1c-0.3-0.7-0.4-1.5-0.3-2.2c0.7-9.1,1.4-18.2,2.3-27.2c0.2-2.4,1.1-4.8,1.6-7.2c0.2-1,0.2-1.9-1-2.7
		c-0.4,0.5-1.1,1-1.3,1.6c-1.8,6.8-3.7,13.5-3.6,20.7c0.1,4.4-0.6,8.7-0.9,13.1c-0.1,1.9-0.5,3.8-0.2,5.7c0.4,2.7-0.2,4.8-1.7,6.9
		c-1.5,2.2-2.7,4.6-4,6.9c-0.8,1.5-1.3,3.2-3.3,4.2c-0.2-0.8-0.4-1.5-0.4-2.2c-0.1-6.1-0.2-12.2-0.2-18.2c0-1.7,0.8-3.3,0.8-5
		c0-1-0.6-1.9-1.2-3.7c-3,6.7-2.5,13.2-3.4,19.2c-1.7,0.2-1.7-0.7-1.9-1.4c-0.8-3.1-1.6-6.3-2.3-9.4c-0.4-1.7-0.6-3.4-0.6-5.1
		c-0.2-10.2,2.1-19.9,6-29.3c0.3-0.7,0.6-1.4,1-2c5.3-8.7,10.8-17.3,18-24.6c0.1,0.5,0.3,1,0.1,1.3c-3.4,5.1-5.7,10.7-7.8,16.4
		c-0.9,2.5-1.8,5-1.7,7.6c1.2,0.8,1.9,0.3,2.4-0.7c0.5-1.2,1-2.5,1.4-3.7c1.8-6.7,5.1-12.7,8.7-18.5c0.2-0.3,0.6-0.5,0.9-0.7
		c3,1.5,3,1.5,5.8-0.9c-1.7,9.5-4.4,19-4.6,29.6c2.2-1.6,2.2-3.6,2.5-5.3c0.6-3.7,0.8-7.6,1.7-11.3c1.5-6.2,2.5-12.6,5-18.5
		c1.4,0,1.3,0.9,1.3,1.6c0,4.6,0.3,9.1-1,13.6c-0.4,1.4-1,2.9,0.5,4.4c0.4-0.6,0.8-0.9,0.9-1.4c0.7-3.2,1.3-6.3,1.8-9.5
		c0.3-2,0.3-4.1,0.3-6.2c-0.1-4.3,0.6-8.6,1.6-13.7c2.3,3.3,2,6.2,2.5,8.9c0.4,2.7-0.4,5.6,0.5,9.5c0.9-1.7,1.4-2.3,1.4-2.9
		c0.2-2.7,0.2-5.3,0.2-8c0-1.1,0.1-2.2,0.3-3.9c1,0.8,1.8,1.2,2,1.7C1113.4,661.3,1114.5,664.7,1114.6,668.4z M1187,551.2
		C1187,551.2,1187,551.2,1187,551.2c0-0.1,0-0.2,0.1-0.4C1187.1,550.9,1187.1,551.1,1187,551.2z M1186.7,551.9
		c0.1,0.8,0.1,1.6,0.2,2.4C1186.5,553.5,1186.2,552.7,1186.7,551.9z M1158.8,578.6c1.3,1.9,0.1,2.8-1.3,3.6
		C1157,580.7,1157.8,579.6,1158.8,578.6z M1156.1,583.7c0.4-0.4,0.8-0.8,1.3-1.1c-0.1,0.6-0.3,1.1-0.4,1.7c0,0.1-0.3,0.2-0.4,0.3
		C1156.4,584.2,1156.1,583.7,1156.1,583.7z M1155.2,587.8l0.3,0.4l-0.4,0.1L1155.2,587.8z M1156.3,630.5c0.1-0.2,0.2-0.4,0.3-0.6
		c0,0.3,0,0.6,0.1,0.9C1156.5,630.7,1156.3,630.5,1156.3,630.5z M1159.1,626.6c-0.8,0.9-1.6,1.8-2.4,2.6c0.1-2.7-0.1-5.5,0.4-8.1
		c1.4-7.4,3.2-14.8,4.7-22.1c0.3-1.4,0.5-2.8-0.1-4.5c-0.5,0.7-1.1,1.3-1.4,2.1c-3.2,9.1-5.9,18.3-7,27.9c-0.2,1.5-0.4,3-0.9,4.4
		c-0.3,0.8-1.2,1.3-1.8,2c0.2,0.4,0.3,0.8,0.5,1.2c-0.2-0.4-0.3-0.8-0.5-1.1c0.5-6.9,0.2-13.8,2.3-20.5c0.7-2.3-0.7-3.4-2.3-4.7
		c0.5-1.7,1-3.4,1.5-5.2c0,0,0,0,0,0c0.1-1.6,0.2-3.3,0.4-4.9c1.1,0,1.8,0,2.9-0.1c2.3-6.1,4.6-12.3,7-18.4c0.4-1.1,0.7-2.2,1.3-3.2
		c4.1-6.4,6.9-13.5,11.9-19.4c1.7-2,2.9-4.5,4.4-6.6c0.7-1,1.9-1.6,3.4-2.9c0.3,7.1-1.5,13.1-2.9,19.1c-1.4,6-3.1,11.9-4.6,17.8
		c1.3,0.8,1.7,0.1,1.9-0.6c2.4-7,5.4-13.8,6.5-21.2c0.3-1.7,0.9-3.3,1.5-4.9c0.1-0.3,0.7-0.5,1.1-0.7c0.2,2.2,0.6,4.4,0.6,6.6
		c0,2.5,0.4,4.9,1.3,7.2c0.3,0.9,0.7,1.8,0.7,2.8c-0.1,6.9,1.9,13.5,3.4,20.2c0.5,2.1,0.6,4.1,0,6.2c-2.2,7.5-4.5,14.9-6.8,22.4
		c-1.3,4-3.7,7.5-6,11c-2.1,3-4.6,5.5-7.8,7.4c-1.8,1-3.5,2.1-5.8,3.6c0.8-4,2.7-6.5,4.9-8.8c2-2.1,3.2-4.5,4.1-7.3
		c-0.7,0-1.3-0.1-1.4,0.1c-3.7,4.8-7.4,9.6-11.4,14.8c-0.9-2.5,1.1-4.5,0.6-6.5c-1.1-0.6-1.6,0-2,0.6c-0.7,1.1-1.3,2.3-2.2,3.8
		c-1.1-2.4-0.7-4.5-0.5-6.5C1158.7,630.4,1159.8,628.6,1159.1,626.6z M1166.8,698.5c-0.2,0.1-0.4,0.2-0.7,0.3c0-0.2,0.1-0.5,0.1-0.7
		C1166.4,698.2,1166.6,698.4,1166.8,698.5z M1157,697.9c-1.2,2.4-2.2,4.9-5,5.8C1152.7,700.8,1154.8,699.3,1157,697.9z
		 M1168.6,731.9c-0.4,1.8-1.4,3.6-2.4,5.1c-0.8,1.2-1.8,2.6-4,2.2c0.5-4.1,3.7-7.7,2.8-12.6c-0.8,0.7-1.3,1-1.5,1.4
		c-2.2,4.4-4.5,8.8-6.6,13.2c-0.5,1-0.6,2.2-0.8,3.2c-1.6,6.6-4.5,12.4-10.4,16.9c-0.2-0.8-0.2-1.3-0.4-1.8
		c-0.1-0.3-0.2-0.7-0.4-1.2c-2.1,0.4-2.7,2.6-3.9,3.9c-1.7,1.9-3.5,3.5-6.2,3.7c-0.7,0-1.4-0.2-2.4-0.5c1.4-3.5,4-5.9,5.8-8.8
		c1.9-3,4-6,6.1-8.9c1.9-2.7,3.4-5.6,4.6-8.6c-1.7-0.8-2.2-0.1-2.6,0.5c-2.1,3.4-4.3,6.7-6.1,10.3c-2,3.9-5,7.1-8.4,11.1
		c1.1-4.5,3.2-7.6,4.9-10.9c1.8-3.5,3.8-7,5.4-10.7c1.5-3.4,4.7-6,4.7-10.1c-1.2-0.6-2-0.3-2.5,0.7c-3,5.5-6.2,10.9-8.8,16.6
		c-4.3,8.9-9.3,17.4-15.2,25.3c-0.2,0.3-0.6,0.3-1.4,0.7c0.4-1.8,0.7-3.3,1.1-5.1c-3,0.9-2.9,4.2-5.5,5.4c-0.5-2.2,0.3-4,0.9-5.7
		c2.3-6.4,4.6-12.8,7.1-19.2c1.4-3.5,2.9-7,4.6-10.4c1.3-2.6,1.6-5.3,2.9-8.5c-2.8,0.7-4,2.2-4.5,3.9c-1.4,5.7-4.6,10.8-6.6,16.3
		c-1.5,4.3-3.2,8.5-4.6,12.8c-0.5,1.5-0.8,2.9-2.1,3.9c-1.3-1-1.2-2.5-0.7-3.7c1.1-2.5,1.1-5.2,1.2-7.8c0.1-1.9,0.4-3.8,0.8-5.6
		c2.8-10.4,7.2-20,13.9-28.5c3.6-4.6,7.6-9.1,11.5-13.5c3.3-3.7,7.5-6.2,12.3-9.1c-1.2,5.3-6,6.6-8.1,10.1c-2.2,3.5-5,6.5-8,11
		c1.9-0.7,2.8-0.7,3.2-1.1c1.9-2.1,3.7-4.3,5.4-6.6c2.2-3.1,4.8-5.9,8.3-7.6c0,0,0,0,0,0c1,0.5,2,0.8,3-0.1c1.8-1.6,3.7-3.2,5.5-4.8
		c1.2,1,0,1.7-0.3,2.4c-1.5,3-3.7,5.6-5.1,9.5c1.2-0.4,1.9-0.4,2.2-0.8c1.7-2.2,3.3-4.5,5-6.8c1-1.5,1.8-3.2,3.6-4
		c0.4,2.6-1.4,4.5-2.3,6.7c-1.7,4-3.5,7.9-5.1,11.7c1.1,1.5,2,1,2.6,0.2c1.1-1.6,2-3.2,2.9-4.9c2.2-4.4,4.3-8.8,6.4-13.3
		c1.5,0.7,1.2,1.7,1.2,2.5c0.1,3.8,0,7.6,0.1,11.4C1171.9,719.8,1170.1,725.8,1168.6,731.9z M1228.5,754.6
		c-4.2-11.2-9.4-22-15.8-32.1c-1.7-2.7-3.8-5.3-6-7.6c-6.6-7.1-13.3-14.1-20-21.1c-9.2-9.6-18.4-19.2-27.8-29.1
		c0-7.4,3-13.2,8.4-17.7c2.2-1.8,4.7-3.3,7-4.9c2.3-1.6,4.6-3.3,7.2-5.1c3,2.8,4.5,6.5,6.3,9.9c5.5,10,10.8,20.1,16.3,30.1
		c2.7,5,5.7,9.9,8.4,14.9c1.6,3,2.9,6.2,4.4,9.3c4.9,10.1,9.2,20.5,12.3,31.3c0.9,3.1,1.5,6.3,2.1,9.5c1.6,7.8,3.8,15.5,4.4,23.5
		c0.1,1.6,0.1,3.2,0.2,5.8C1232.7,765.1,1230.5,759.9,1228.5,754.6z"/>
	<g>
	</g>
	<g>
	</g>
	<g>
	</g>
	<g>
	</g>
	<g>
	</g>
	<g>
	</g>
</g>
</svg>
