<?xml version="1.0" encoding="utf-8"?>
<!-- Generator: Adobe Illustrator 25.2.3, SVG Export Plug-In . SVG Version: 6.00 Build 0)  -->
<svg version="1.1" id="Ebene_1" xmlns="http://www.w3.org/2000/svg" xmlns:xlink="http://www.w3.org/1999/xlink" x="0px" y="0px"
	 viewBox="0 0 1691 893" style="enable-background:new 0 0 1691 893;" xml:space="preserve">
<style type="text/css">
	.st0{opacity:0.3;fill:#FCC40B;enable-background:new    ;}
	.st1{fill:#F8AE53;}
</style>
<path class="st0" d="M646.8,0.5H-0.3L-4,873c276.2,13.8,350-436,860-650C1225,94,1466.8,60.9,1639,0"/>
<g>
	<path class="st1" d="M1381.6,39.7c1.5,6.4,5.4,12.3,10.7,16.2c0.8,0.6,1.6,1.2,2.5,1.7c5.5,3.2,12.7,4.3,17.9,0.1
		c6.5-5.3,7.6-15.2,4.1-22.5c-3.8-8.2-13-14.7-22.3-13.7c-0.1,0-0.1,0-0.2,0C1386.5,22.4,1377.2,31.6,1381.6,39.7z M1394.5,23.1
		c0.3-0.1,0.5-0.1,0.7-0.1c8.4-0.5,16.5,5.2,20.1,12.6c3.2,6.6,2.4,15.8-3.5,20.7c-4.6,3.8-11,2.8-15.9,0c-1.1-0.7-2.2-1.4-3.3-2.2
		c-4.7-3.7-8.1-9.1-9.5-14.9l0,0l0,0c-0.1-0.1-0.1-0.2-0.1-0.3C1379.2,31.9,1387.7,23.9,1394.5,23.1z"/>
	<path class="st1" d="M1425.6,75.2c5.6-4.1,10.1-9.5,12.7-15.8c0.6-1.4,1.1-2.9,1.5-4.4c1.4-5.4,1.3-11.1,0.2-16.5c-0.5-2-1-4-1.7-6
		c-6.5-17.4-23.2-30.4-41.7-32c-1.7-0.3-3.4-0.3-5.2,0.1c-6.1,1.1-12.3,5.3-16.7,8.7c-6.8,5.4-11.6,12.2-12.8,21
		c-2.2,16.3,7.4,32.6,20,42.3c1.7,1.3,3.5,2.5,5.3,3.5C1399.2,83,1413.7,84.1,1425.6,75.2z M1387.6,74.5
		c-12.8-7.6-23.1-21.7-24.4-36.7c-0.8-9.2,2.1-17.6,8.7-24.1c3.5-3.5,7.7-6.4,12.1-8.7c2.2-1.2,5-2.4,7.7-2.9c1.5-0.3,3-0.4,4.5-0.1
		c0.1,0,0.1,0,0.1,0c0.1,0,0.1,0,0.1,0c15.8,1.3,30,11.3,37.6,25.1c7.4,13.5,7.2,30.1-3.7,41.8c-5.5,5.9-12.9,10.4-21.1,11.1
		c-7.4,0.7-14.7-1.5-21-5.2C1388,74.8,1387.8,74.6,1387.6,74.5z"/>
	<path class="st1" d="M1355.6,67c6.7,9.7,15.8,17.8,26.1,23.2c11.3,5.9,24.3,8.3,37.4,5.4c4.7-1.1,9.3-2.8,13.6-5.2
		c1.4-0.7,2.7-1.5,4-2.4c5-3.3,10.1-6.8,14.3-11c9.3-9.2,11.7-22.4,10.5-35c-1.2-12.4-6.1-23.2-13.2-33.2c-1.7-2.5-3.6-5-5.7-7.4
		c-0.4-0.5-0.8-0.9-1.1-1.3h-2.2c1,1.1,1.9,2.1,2.8,3.1c0.2,0.2,0.3,0.3,0.4,0.5c6.8,8.2,12.9,17.7,15.7,28
		c3.3,12.2,3.6,27.3-3.4,38.4c-3.1,4.8-7.5,8.4-11.9,11.7c-3.1,2.2-6.1,4.4-9.4,6.4c-1.8,1.1-3.7,2-5.6,2.9
		c-15.1,6.5-31.4,4.7-45.3-2.3c-7.6-3.8-14.5-9.2-20.1-15.7c-13-14.9-23-37.2-16.9-57.1c1.9-6.2,5.4-11.5,10-15.9h-2.3
		c-1.8,1.9-3.5,4-5,6.3C1336.1,25.3,1343.7,50,1355.6,67z"/>
	<path class="st1" d="M1324.1,49.4c5.3,15.1,15.8,28.5,27.1,39.7c6.6,6.6,14.1,13,22.4,18c6.3,3.8,13,6.7,20,8.4
		c9.5,2.2,19.6,2.1,29.3,0c6.5-1.4,12.8-3.7,18.6-6.8c7.2-3.9,13.2-9.3,19-15c5.6-5.4,10.8-11.2,14.8-17.9
		c8.5-14.3,9.1-32.2,5.4-48.2c-2.2-9.6-6-19.1-11.3-27.5h-2c3.1,4.8,5.7,10,7.8,15.4c6,15.2,8.5,33.4,3.4,49.3
		c-4.7,14.3-16.2,25.9-27.5,35.3c-7.9,6.6-17.3,11.1-27.2,13.4c-5.9,1.4-11.9,2-17.9,1.8c-11.5-0.3-22-4.1-31.6-9.8
		c-4.5-2.7-8.8-5.8-12.9-9.2c-12-10-22.7-22.1-30.4-35.7c-8.1-14.3-10.7-30.1-6.8-46.2c1.2-4.9,3-9.8,5.4-14.4h-1.9
		c-0.5,1-0.9,1.9-1.4,2.9C1319.9,17.5,1318.8,34.4,1324.1,49.4z"/>
	<path class="st1" d="M1305.3,39.1c1.4,10.1,3.2,20.5,6.7,30.1c7.2,19.6,20.6,37.5,37,50.3c3.7,2.9,7.7,5.6,11.8,8
		c5.4,3.2,10.9,5.9,16.6,8.3c10.5,4.3,21.8,6.9,33.1,5.9l0,0c10.9-1,20.4-5.8,29.9-10.8c9.2-4.8,18.2-10.1,26.5-16.5
		c16.3-12.6,28.1-29.5,33.4-49.5c5.2-19.3,3.6-39.9-4.7-58.2c-1-2.2-2.2-4.5-3.4-6.6h-1.8c8.1,14.1,12.2,30.4,11.2,46.8
		c-1.1,19.7-9.1,39.5-22.4,54.1c-13,14.3-30.2,24.1-47.4,32.5c-6.8,3.3-13.7,5.6-20.9,6.5c-3.7,0.5-7.6,0.5-11.5,0.2
		c-11.1-1.1-21.7-5.2-31.5-10.4c-2.1-1.1-4.2-2.3-6.3-3.6c-15.7-9.5-28.7-22.2-38.6-37.9c-10.6-16.9-15.4-36.1-17.2-55.7
		c-0.9-9.9-0.8-20.1,2.1-29.7c0.3-0.9,0.6-1.8,0.9-2.8h-1.6c-1,2.8-1.8,5.7-2.3,8.7C1303.3,18.8,1303.9,29.1,1305.3,39.1z"/>
	<path class="st1" d="M1290.3,59.6c1.8,11.2,4.9,22.3,9.4,32.7c4.5,10.3,10.9,19.1,18.9,27c9.1,8.9,19.6,16.9,30.9,23.1
		c10.6,5.9,21.9,10.3,33.6,12.8c8.7,1.9,17.4,2.3,26.2,1.9c3.4-0.2,6.8-0.4,10.2-0.8c12.8-1.3,25.4-4.1,37.3-8.9
		c23.7-9.6,42.7-27.1,55-49.4c12.1-21.9,17.3-47.7,12.4-72.5c-1.7-8.8-4.7-17.4-8.5-25.5h-1.7c1.3,3,2.6,6,3.7,9.1
		c8.8,23.3,8.6,48.8-0.1,72.2c-8.8,23.6-25,44.4-46.8,57.3c-18.4,10.9-40.4,16.3-61.9,17.1c-3.2,0.1-6.4,0.1-9.6,0
		c-17.1-0.5-33.9-6.2-49-14.6c-6.6-3.7-12.9-7.9-18.8-12.5c-8.8-6.8-17.4-14.8-23.6-24.2c-6-9-10.1-19.3-12.9-29.7
		c-5.9-21.4-7.5-44.8-3.5-66.7c0.5-2.7,1.1-5.3,1.7-8h-1.7C1287,19.4,1287.1,40,1290.3,59.6z"/>
	<path class="st1" d="M1265.2,52.2c3.7,15.3,7.1,31,14.3,45.1c7.6,14.9,17.1,28.8,26.9,42.3c6.8,9.5,14,18.3,24.2,24
		c1.3,0.8,2.7,1.5,4.2,2.1c14.5,6.5,29.3,12.5,44.7,16.4c15,3.8,30.6,5.8,46,3.5c2.9-0.4,5.8-1,8.7-1.7c12.9-3.2,25.1-9.1,36.8-15.3
		c13.5-7.1,27.3-14.3,38.9-24.2c10.7-9.1,20-20.3,26.1-33c12.1-24.9,12.6-54.6,9.2-81.6c-1.3-10.1-3-20.1-6-29.8h-1.6
		c1,3.2,1.9,6.5,2.7,9.8c5.8,26.2,7.6,54.8,1.3,81.1c-6.5,27.1-24.7,49.3-48.4,63.5c-13.6,8.2-27.9,16-42.7,22.2
		c-6.4,2.7-12.8,4.7-19.4,6.2c-8.4,1.8-17.1,2.6-26,2c-15.6-1-30.8-5.3-45.4-10.6c-7.4-2.7-14.7-5.7-21.9-8.9c-2-0.9-4-1.8-5.9-2.9
		c-4-2.2-7.8-4.8-11.2-8.1c-4.7-4.5-8.7-9.9-12.5-15.2c-4.6-6.4-9.1-12.8-13.5-19.4c-8.6-13.1-16.2-26.6-20.9-41.6
		c-2.2-7.3-4-14.8-5.9-22.2c-2-8.1-3.7-16.2-4.5-24.5c-1-10.5-0.7-21,1-31.5h-1.6C1259.9,17.3,1261.1,35.2,1265.2,52.2z"/>
	<path class="st1" d="M1241.9,72.1c4.9,20,13.5,38.9,23.5,56.7c8.9,15.9,18.3,32.7,33.1,43.9c4.1,3.1,8.5,5.8,13,8.3
		c4.6,2.5,9.3,4.7,14,6.9c9.2,4.3,18.6,8.6,28.2,12.3c19.5,7.4,39.9,11.7,60.8,10.5c27-1.6,53.4-10,76.2-24.2
		c6.3-3.9,12.4-8.3,18.1-13.1c6.8-5.7,13.1-11.9,18.8-18.7c5.8-6.8,10.7-14.1,15.9-21.4c5.6-7.8,11.3-15.5,15.4-24.2
		c4-8.6,5.4-17.8,6-27.2c0.7-10.5,0.5-21,0.2-31.6c-0.3-10.1-0.7-20.1-1.9-30.1c-0.8-6.8-1.9-13.5-3.6-20.1h-1.6
		c4,15.5,4.9,31.7,5.4,47.6c0.3,9.8,0.6,19.6,0.2,29.5c-0.4,9.5-1.1,19.4-4.7,28.3c-3.5,8.7-9,16.4-14.5,24
		c-5.2,7.1-10,14.6-15.6,21.4c-11.9,14.6-26.3,26.9-42.4,36.5c-12.8,7.6-26.6,13.3-41.1,17.1c-17.2,4.4-35.5,6.4-53.2,4.3
		c-20.7-2.5-40-10.2-58.9-18.7c-6.9-3.1-13.8-6.3-20.4-10c-2.1-1.1-4.1-2.3-6.2-3.5c-8.1-4.9-14.9-11-20.8-18.3
		c-5.7-7.1-10.5-14.9-15-22.8c-4.8-8.3-9.4-16.6-13.5-25.3c-8.6-18.1-15.2-37.5-17.4-57.6c-1.9-17.3-0.7-35,1.9-52.3h-1.6
		c-0.4,2.8-0.8,5.6-1.1,8.4C1236.8,29.7,1236.8,51.2,1241.9,72.1z"/>
</g>
<g>
</g>
<g>
</g>
<g>
</g>
<g>
</g>
<g>
</g>
<g>
</g>
</svg>
